<?xml version="1.0" encoding="UTF-8"?>
<svg version="1.1" xmlns="http://www.w3.org/2000/svg" width="273" height="209">
<path d="M0 0 C3.06174002 1.71398843 5.42604007 3.49973168 7.8125 6.0625 C11.19720092 9.44720092 12.99764972 10.07411245 17.625 10.875 C18.285 10.545 18.945 10.215 19.625 9.875 C21.12149362 9.75494547 22.62374793 9.69968549 24.125 9.6875 C25.31609375 9.66623047 25.31609375 9.66623047 26.53125 9.64453125 C28.625 9.875 28.625 9.875 30.625 11.875 C30.955 11.215 31.285 10.555 31.625 9.875 C40.865 9.875 50.105 9.875 59.625 9.875 C59.625 12.185 59.625 14.495 59.625 16.875 C58.305 16.875 56.985 16.875 55.625 16.875 C55.625 24.135 55.625 31.395 55.625 38.875 C52.985 38.875 50.345 38.875 47.625 38.875 C47.625 31.615 47.625 24.355 47.625 16.875 C45.975 16.875 44.325 16.875 42.625 16.875 C42.625 24.135 42.625 31.395 42.625 38.875 C39.985 38.875 37.345 38.875 34.625 38.875 C34.625 37.555 34.625 36.235 34.625 34.875 C34.03332031 34.98199219 33.44164062 35.08898437 32.83203125 35.19921875 C26.34846822 36.18285882 26.34846822 36.18285882 22.6875 34.625 C20.625 32.875 20.625 32.875 18.625 29.875 C18.645625 28.905625 18.66625 27.93625 18.6875 26.9375 C18.61533482 23.40140604 17.81284211 22.51864256 15.625 19.875 C15.625 18.885 15.625 17.895 15.625 16.875 C14.635 16.875 13.645 16.875 12.625 16.875 C12.625 24.135 12.625 31.395 12.625 38.875 C9.985 38.875 7.345 38.875 4.625 38.875 C4.625 37.555 4.625 36.235 4.625 34.875 C3.614375 35.101875 2.60375 35.32875 1.5625 35.5625 C-3.05809424 35.92921383 -5.37268947 35.15082363 -9.375 32.875 C-11.172228 30.8531185 -11.36604419 29.61236162 -11.3984375 26.9453125 C-11.14599979 23.31818126 -10.98571699 21.46721042 -8.3125 18.875 C-7.673125 18.545 -7.03375 18.215 -6.375 17.875 C-9.015 17.545 -11.655 17.215 -14.375 16.875 C-14.375 24.135 -14.375 31.395 -14.375 38.875 C-17.015 38.875 -19.655 38.875 -22.375 38.875 C-22.375 31.615 -22.375 24.355 -22.375 16.875 C-24.025 16.875 -25.675 16.875 -27.375 16.875 C-27.375 23.475 -27.375 30.075 -27.375 36.875 C-26.055 37.535 -24.735 38.195 -23.375 38.875 C-23.375 41.515 -23.375 44.155 -23.375 46.875 C-19.54754549 48.62185308 -16.25057277 49.22386333 -12.0625 49.5 C-10.99386719 49.57476562 -9.92523438 49.64953125 -8.82421875 49.7265625 C-8.01597656 49.77554688 -7.20773438 49.82453125 -6.375 49.875 C-6.705 52.845 -7.035 55.815 -7.375 58.875 C-16.25 58 -16.25 58 -17.375 56.875 C-17.87 57.865 -17.87 57.865 -18.375 58.875 C-21.015 58.875 -23.655 58.875 -26.375 58.875 C-26.705 60.195 -27.035 61.515 -27.375 62.875 C-29.625 62.75 -29.625 62.75 -32.375 61.875 C-34.68808125 58.91939618 -36.18855048 56.43434855 -37.375 52.875 C-37.705 54.855 -38.035 56.835 -38.375 58.875 C-39.85468324 58.73450482 -41.33374516 58.58745174 -42.8125 58.4375 C-43.63621094 58.35628906 -44.45992187 58.27507812 -45.30859375 58.19140625 C-47.375 57.875 -47.375 57.875 -48.375 56.875 C-48.705 57.535 -49.035 58.195 -49.375 58.875 C-50.8290625 58.5965625 -50.8290625 58.5965625 -52.3125 58.3125 C-53.323125 58.168125 -54.33375 58.02375 -55.375 57.875 C-55.87 58.37 -55.87 58.37 -56.375 58.875 C-58.1900957 58.83712481 -60.00386085 58.72007974 -61.8125 58.5625 C-62.80121094 58.48386719 -63.78992188 58.40523437 -64.80859375 58.32421875 C-67.375 57.875 -67.375 57.875 -69.375 55.875 C-68.88 52.905 -68.88 52.905 -68.375 49.875 C-60.785 49.875 -53.195 49.875 -45.375 49.875 C-46.20962035 45.16441438 -46.20962035 45.16441438 -47.375 41.875 C-47.375 40.555 -47.375 39.235 -47.375 37.875 C-49.04860823 35.75411166 -49.04860823 35.75411166 -51.25 33.8125 C-57.29754243 28.16595949 -57.29754243 28.16595949 -57.5625 23.75 C-57.375 20.875 -57.375 20.875 -56.375 19.875 C-54.04202567 19.83407063 -51.70794775 19.83258277 -49.375 19.875 C-49.375 18.885 -49.375 17.895 -49.375 16.875 C-52.345 16.875 -55.315 16.875 -58.375 16.875 C-58.375 14.565 -58.375 12.255 -58.375 9.875 C-46.825 9.875 -35.275 9.875 -23.375 9.875 C-23.375 7.235 -23.375 4.595 -23.375 1.875 C-17.46972799 -4.68641335 -7.42022563 -3.46351921 0 0 Z M-14.375 4.875 C-14.705 6.525 -15.035 8.175 -15.375 9.875 C-10.095 9.875 -4.815 9.875 0.625 9.875 C-4.54361518 5.4408846 -4.54361518 5.4408846 -10.5 4.8125 C-12.418125 4.8434375 -12.418125 4.8434375 -14.375 4.875 Z M22.625 15.875 C22.955 16.865 23.285 17.855 23.625 18.875 C23.955 17.885 24.285 16.895 24.625 15.875 C23.965 15.875 23.305 15.875 22.625 15.875 Z M31.625 15.875 C30.3869986 19.45144848 30.87573929 22.21194766 31.625 25.875 C29.975 26.205 28.325 26.535 26.625 26.875 C26.955 27.535 27.285 28.195 27.625 28.875 C31.55575644 28.30047254 31.55575644 28.30047254 34.625 25.875 C34.86753813 23.66427023 34.86753813 23.66427023 34.75 21.25 C34.73195313 20.43273437 34.71390625 19.61546875 34.6953125 18.7734375 C34.67210937 18.14695312 34.64890625 17.52046875 34.625 16.875 C33.635 16.545 32.645 16.215 31.625 15.875 Z M-41.375 16.875 C-41.705 18.855 -42.035 20.835 -42.375 22.875 C-38.91 22.38 -38.91 22.38 -35.375 21.875 C-35.375 20.225 -35.375 18.575 -35.375 16.875 C-37.355 16.875 -39.335 16.875 -41.375 16.875 Z M-2.375 24.875 C-2.705 25.865 -3.035 26.855 -3.375 27.875 C-1.59358253 28.73858623 -1.59358253 28.73858623 0.625 28.875 C2.89644074 27.02067913 2.89644074 27.02067913 4.625 24.875 C2.315 24.875 0.005 24.875 -2.375 24.875 Z M-44.375 28.875 C-43.694375 29.57625 -43.01375 30.2775 -42.3125 31 C-40.375 33.875 -40.375 33.875 -40.625 37.1875 C-40.8725 38.074375 -41.12 38.96125 -41.375 39.875 C-39.725 40.865 -38.075 41.855 -36.375 42.875 C-36.705 40.895 -37.035 38.915 -37.375 36.875 C-36.715 36.875 -36.055 36.875 -35.375 36.875 C-35.375 34.235 -35.375 31.595 -35.375 28.875 C-38.345 28.875 -41.315 28.875 -44.375 28.875 Z M-36.375 42.875 C-35.715 43.535 -35.055 44.195 -34.375 44.875 C-32.26679203 44.5564823 -32.26679203 44.5564823 -30.375 43.875 C-30.375 43.545 -30.375 43.215 -30.375 42.875 C-32.355 42.875 -34.335 42.875 -36.375 42.875 Z " fill="#D53535" transform="translate(198.375,108.125)"/>
<path d="M0 0 C0.99 0 1.98 0 3 0 C4.32763672 1.36669922 4.32763672 1.36669922 5.6796875 3.3046875 C6.18975342 4.02430664 6.69981934 4.74392578 7.2253418 5.48535156 C8.04192261 6.66822754 8.04192261 6.66822754 8.875 7.875 C10.04529021 9.53405362 11.21587132 11.19290208 12.38671875 12.8515625 C12.98532715 13.7065332 13.58393555 14.56150391 14.20068359 15.44238281 C16.9899064 19.40709084 19.84035731 23.32679861 22.6875 27.25 C26.86962897 33.03500961 31.0355725 38.83115808 35.17236328 44.64868164 C37.58428183 48.03568334 40.02016142 51.40395402 42.47265625 54.76171875 C43.06755859 55.57833984 43.66246094 56.39496094 44.27539062 57.23632812 C45.44666791 58.84283413 46.62104003 60.44708931 47.79882812 62.04882812 C48.33056641 62.77908203 48.86230469 63.50933594 49.41015625 64.26171875 C49.88590088 64.91100342 50.36164551 65.56028809 50.85180664 66.22924805 C52 68 52 68 53 71 C54.73007073 71.8130774 54.73007073 71.8130774 56.875 72.3125 C63.80019335 74.39893646 70.00293221 78.0019548 76 82 C76 82.66 76 83.32 76 84 C67.80082832 83.33006359 59.84086323 81.93503649 51.77148438 80.37304688 C50.84013672 80.19708984 49.90878906 80.02113281 48.94921875 79.83984375 C48.11737061 79.67863037 47.28552246 79.51741699 46.4284668 79.35131836 C43.97375654 78.91322504 43.97375654 78.91322504 41.37036133 79.15405273 C39 79 39 79 37.4453125 77.63330078 C37.00960937 76.99376465 36.57390625 76.35422852 36.125 75.6953125 C35.62145996 74.97577393 35.11791992 74.25623535 34.59912109 73.51489258 C34.07141113 72.72622803 33.54370117 71.93756348 33 71.125 C31.84678297 69.46454586 30.69312473 67.80439807 29.5390625 66.14453125 C28.95286133 65.28939941 28.36666016 64.43426758 27.76269531 63.55322266 C25.02941787 59.59413464 22.20192386 55.70497953 19.375 51.8125 C18.30588247 50.3321086 17.23687119 48.85164046 16.16796875 47.37109375 C11.47790513 40.89019953 6.74195488 34.44297677 2 28 C-4.91341628 36.61034574 -11.59583357 45.33630302 -17.9375 54.375 C-18.43709229 55.08430664 -18.93668457 55.79361328 -19.45141602 56.52441406 C-21.48411109 59.41172414 -23.51571934 62.29934522 -25.5234375 65.20410156 C-26.98217484 67.31190144 -28.45808883 69.40668006 -29.9375 71.5 C-30.37376709 72.14114746 -30.81003418 72.78229492 -31.25952148 73.44287109 C-34.39951557 77.84116051 -34.39951557 77.84116051 -37.26586914 78.59936523 C-38.16813232 78.73157471 -39.07039551 78.86378418 -40 79 C-40.97904297 79.18892822 -41.95808594 79.37785645 -42.96679688 79.57250977 C-46.47698764 80.24055283 -49.98838413 80.90199059 -53.5 81.5625 C-54.72332031 81.79646484 -55.94664063 82.03042969 -57.20703125 82.27148438 C-58.38652344 82.49255859 -59.56601563 82.71363281 -60.78125 82.94140625 C-62.3909668 83.24606812 -62.3909668 83.24606812 -64.03320312 83.55688477 C-66.74667188 83.96216338 -69.26282583 84.08577407 -72 84 C-72.33 83.34 -72.66 82.68 -73 82 C-70.85734829 80.74427809 -68.71111592 79.49544643 -66.5625 78.25 C-65.97017578 77.90195313 -65.37785156 77.55390625 -64.76757812 77.1953125 C-61.36779908 75.23180375 -58.05291557 73.62266483 -54.38671875 72.2109375 C-49.37400006 70.02318089 -47.11359496 66.91182267 -44.25 62.375 C-43.22409781 60.83888002 -42.19670368 59.30375559 -41.16796875 57.76953125 C-40.6476709 56.9801416 -40.12737305 56.19075195 -39.59130859 55.37744141 C-37.01717462 51.5316426 -34.28876064 47.80121948 -31.5625 44.0625 C-30.47096403 42.5549699 -29.37981991 41.04715601 -28.2890625 39.5390625 C-26.64444092 37.26903521 -24.99946651 34.99926387 -23.35449219 32.72949219 C-22.25907979 31.21752368 -21.16410876 29.70523531 -20.06958008 28.19262695 C-18.98986306 26.70072776 -17.90898873 25.2096654 -16.8269043 23.71948242 C-14.04302386 19.87475332 -11.3038617 16.00592575 -8.62109375 12.08984375 C-7.80330444 10.90370483 -7.80330444 10.90370483 -6.96899414 9.69360352 C-5.92696249 8.17787759 -4.89321113 6.65641686 -3.86889648 5.12866211 C-2.65361333 3.36547949 -1.33515515 1.67424217 0 0 Z " fill="#1E8E1E" transform="translate(130,23)"/>
<path d="M0 0 C4.49822574 0.99784585 7.11390697 3.78470281 9.59375 7.6171875 C10.21875 9.4921875 10.21875 9.4921875 10.21875 12.4921875 C11.86875 12.4921875 13.51875 12.4921875 15.21875 12.4921875 C15.21875 14.8021875 15.21875 17.1121875 15.21875 19.4921875 C13.89875 19.4921875 12.57875 19.4921875 11.21875 19.4921875 C11.21875 26.7521875 11.21875 34.0121875 11.21875 41.4921875 C8.57875 41.4921875 5.93875 41.4921875 3.21875 41.4921875 C3.21875 34.2321875 3.21875 26.9721875 3.21875 19.4921875 C1.56875 19.4921875 -0.08125 19.4921875 -1.78125 19.4921875 C-1.78125 26.7521875 -1.78125 34.0121875 -1.78125 41.4921875 C-4.42125 41.4921875 -7.06125 41.4921875 -9.78125 41.4921875 C-10.11125 37.8621875 -10.44125 34.2321875 -10.78125 30.4921875 C-11.77125 31.9771875 -11.77125 31.9771875 -12.78125 33.4921875 C-15.09125 33.1621875 -17.40125 32.8321875 -19.78125 32.4921875 C-19.78125 31.1721875 -19.78125 29.8521875 -19.78125 28.4921875 C-20.77125 28.4921875 -21.76125 28.4921875 -22.78125 28.4921875 C-20.77399859 32.06001052 -20.77399859 32.06001052 -18.03125 35.0546875 C-17.61875 35.5290625 -17.20625 36.0034375 -16.78125 36.4921875 C-17.05161147 39.46616366 -17.63571026 40.34664776 -19.78125 42.4921875 C-23.36740788 42.19581082 -25.14120459 40.56608256 -27.53125 37.9921875 C-30.74648744 34.15464604 -31.53173604 31.41715784 -31.41796875 26.47265625 C-30.78125 24.4921875 -30.78125 24.4921875 -29.28515625 22.7421875 C-25.5596901 20.8823604 -22.13033326 21.17213008 -18.03125 21.3046875 C-16.84208984 21.32499023 -16.84208984 21.32499023 -15.62890625 21.34570312 C-13.67939436 21.38093527 -11.73023374 21.43473929 -9.78125 21.4921875 C-9.78125 20.8321875 -9.78125 20.1721875 -9.78125 19.4921875 C-17.70125 19.4921875 -25.62125 19.4921875 -33.78125 19.4921875 C-33.78125 26.7521875 -33.78125 34.0121875 -33.78125 41.4921875 C-36.42125 41.4921875 -39.06125 41.4921875 -41.78125 41.4921875 C-42.11125 39.8421875 -42.44125 38.1921875 -42.78125 36.4921875 C-44.01875 36.5334375 -45.25625 36.5746875 -46.53125 36.6171875 C-49.78769202 36.60568064 -52.11521004 36.54298747 -54.78125 34.4921875 C-56.87732522 31.19835501 -56.99808808 28.5993869 -56.90625 24.7421875 C-56.88820312 23.75734375 -56.87015625 22.7725 -56.8515625 21.7578125 C-56.82835937 21.01015625 -56.80515625 20.2625 -56.78125 19.4921875 C-58.43125 19.4921875 -60.08125 19.4921875 -61.78125 19.4921875 C-61.78125 26.7521875 -61.78125 34.0121875 -61.78125 41.4921875 C-64.42125 41.4921875 -67.06125 41.4921875 -69.78125 41.4921875 C-69.78125 34.2321875 -69.78125 26.9721875 -69.78125 19.4921875 C-71.43125 19.4921875 -73.08125 19.4921875 -74.78125 19.4921875 C-74.78125 26.7521875 -74.78125 34.0121875 -74.78125 41.4921875 C-77.42125 41.4921875 -80.06125 41.4921875 -82.78125 41.4921875 C-82.78125 38.1921875 -82.78125 34.8921875 -82.78125 31.4921875 C-83.77125 31.4921875 -84.76125 31.4921875 -85.78125 31.4921875 C-85.678125 32.2553125 -85.575 33.0184375 -85.46875 33.8046875 C-85.78125 36.4921875 -85.78125 36.4921875 -87.65625 38.3671875 C-92.27337661 40.02935308 -96.10906145 40.0471616 -100.78125 38.4921875 C-104.93204081 35.33609071 -107.3707282 32.02480222 -108.71875 26.9921875 C-108.739375 26.1671875 -108.76 25.3421875 -108.78125 24.4921875 C-106.13386084 23.031559 -104.88676666 22.4921875 -101.78125 22.4921875 C-101.53890625 23.05808594 -101.2965625 23.62398437 -101.046875 24.20703125 C-100.71171875 24.94050781 -100.3765625 25.67398438 -100.03125 26.4296875 C-99.70640625 27.16058594 -99.3815625 27.89148438 -99.046875 28.64453125 C-97.91955628 30.68025394 -97.91955628 30.68025394 -95.640625 31.24609375 C-95.02703125 31.32730469 -94.4134375 31.40851563 -93.78125 31.4921875 C-93.78125 30.8321875 -93.78125 30.1721875 -93.78125 29.4921875 C-95.10125 29.1621875 -96.42125 28.8321875 -97.78125 28.4921875 C-97.96875 25.1171875 -97.96875 25.1171875 -97.78125 21.4921875 C-96.79125 20.8321875 -95.80125 20.1721875 -94.78125 19.4921875 C-97.09125 19.8221875 -99.40125 20.1521875 -101.78125 20.4921875 C-102.11125 18.1821875 -102.44125 15.8721875 -102.78125 13.4921875 C-98.83975925 11.52144213 -94.07878276 12.04783404 -89.78125 12.4921875 C-87.09375 14.0546875 -87.09375 14.0546875 -85.78125 16.4921875 C-85.53125 20.2421875 -85.53125 20.2421875 -85.78125 23.4921875 C-84.79125 23.8221875 -83.80125 24.1521875 -82.78125 24.4921875 C-82.78125 22.8421875 -82.78125 21.1921875 -82.78125 19.4921875 C-83.44125 19.4921875 -84.10125 19.4921875 -84.78125 19.4921875 C-84.78125 17.1821875 -84.78125 14.8721875 -84.78125 12.4921875 C-60.69125 12.1621875 -36.60125 11.8321875 -11.78125 11.4921875 C-11.78125 9.5121875 -11.78125 7.5321875 -11.78125 5.4921875 C-8.54152592 0.68485499 -5.54440672 -0.31418305 0 0 Z M-2.78125 7.4921875 C-3.37195014 9.43822024 -3.37195014 9.43822024 -3.78125 11.4921875 C-2.65590895 12.84837249 -2.65590895 12.84837249 0.28125 12.5546875 C1.250625 12.5340625 2.22 12.5134375 3.21875 12.4921875 C1.93586243 9.93714793 1.93586243 9.93714793 0.21875 7.4921875 C-0.77125 7.4921875 -1.76125 7.4921875 -2.78125 7.4921875 Z M-48.78125 19.4921875 C-48.78125 22.4621875 -48.78125 25.4321875 -48.78125 28.4921875 C-47.46125 28.8221875 -46.14125 29.1521875 -44.78125 29.4921875 C-43.79125 28.8321875 -42.80125 28.1721875 -41.78125 27.4921875 C-41.41827064 25.51471628 -41.41827064 25.51471628 -41.59375 23.3671875 C-41.655625 22.0884375 -41.7175 20.8096875 -41.78125 19.4921875 C-44.09125 19.4921875 -46.40125 19.4921875 -48.78125 19.4921875 Z " fill="#1A1A1A" transform="translate(115.78125,105.5078125)"/>
<path d="M0 0 C3.39723098 1.54060475 6.16368808 3.55482342 9.125 5.8125 C30.54586313 21.4814647 55.98192669 22.72274863 81.46166992 19.45581055 C83.56367671 19.18734971 85.6672027 18.93548071 87.77148438 18.68554688 C96.64432858 17.6009201 105.28762896 16.03148831 114 14 C112.94014893 14.18175781 111.88029785 14.36351562 110.78833008 14.55078125 C75.17947558 20.58769929 75.17947558 20.58769929 57.8125 20.625 C56.13667847 20.64046875 56.13667847 20.64046875 54.42700195 20.65625 C46.1107691 20.51500835 36.03472927 19.63727833 29.62817383 13.86181641 C29.09087646 13.24741699 28.5535791 12.63301758 28 12 C31.44605162 10.85131613 32.9163253 11.21327593 36.43310547 11.91821289 C42.69665029 13.03413045 48.71754366 13.34322275 55.0703125 13.30859375 C56.18632843 13.30492294 57.30234436 13.30125214 58.45217896 13.29747009 C71.03247334 13.13886356 83.40979414 11.65579017 95.875 10.0625 C99.28557854 9.6414559 102.69666877 9.2248189 106.10794067 8.80943298 C108.19886461 8.55328261 110.2893109 8.29318453 112.37911987 8.02809143 C121.65828552 6.86317517 130.93424647 5.85818041 140.296875 5.90234375 C141.52148438 5.90556641 142.74609375 5.90878906 144.0078125 5.91210938 C145.86019531 5.92467773 145.86019531 5.92467773 147.75 5.9375 C149.03132812 5.94201172 150.31265625 5.94652344 151.6328125 5.95117188 C154.75525931 5.9628228 157.87760318 5.97917975 161 6 C161 6.66 161 7.32 161 8 C161.79555298 7.75878418 161.79555298 7.75878418 162.60717773 7.51269531 C187.55337408 2.16762723 217.76362865 8.44507302 240 20 C240 20.66 240 21.32 240 22 C235.14716625 20.96010705 230.35271036 19.82732661 225.56176758 18.52905273 C191.92367383 9.6276302 157.10017584 15.72247743 123.359375 21.1953125 C121.53065605 21.4915451 121.53065605 21.4915451 119.66499329 21.79376221 C113.53148591 22.78967276 107.4002893 23.79733639 101.2722168 24.82617188 C39.39522548 35.11050499 39.39522548 35.11050499 14.6875 21.125 C7.79299778 15.67353312 3.27858069 10.26444071 0 2 C0 1.34 0 0.68 0 0 Z M134 10 C134 10.33 134 10.66 134 11 C135.65 11 137.3 11 139 11 C139 10.67 139 10.34 139 10 C137.35 10 135.7 10 134 10 Z M127 11 C127 11.33 127 11.66 127 12 C128.98 12 130.96 12 133 12 C133 11.67 133 11.34 133 11 C131.02 11 129.04 11 127 11 Z " fill="#1D8D1D" transform="translate(11,167)"/>
<path d="M0 0 C3.26294757 1.08764919 3.62169918 1.48851217 5.4609375 4.18359375 C6.1578772 5.18990845 6.1578772 5.18990845 6.86889648 6.21655273 C7.36591064 6.94946533 7.8629248 7.68237793 8.375 8.4375 C9.45603589 10.00068882 10.53810082 11.5631664 11.62109375 13.125 C12.17909668 13.93324219 12.73709961 14.74148437 13.31201172 15.57421875 C15.97215931 19.39707476 18.70284632 23.16775354 21.4375 26.9375 C21.97028564 27.67379639 22.50307129 28.41009277 23.05200195 29.16870117 C25.2911417 32.26292563 27.53271012 35.35538685 29.77441406 38.44775391 C31.53799838 40.88119338 33.30026657 43.31558216 35.0625 45.75 C35.59866943 46.48855225 36.13483887 47.22710449 36.68725586 47.98803711 C37.44727905 49.03809937 37.44727905 49.03809937 38.22265625 50.109375 C38.95633423 51.10287964 38.95633423 51.10287964 39.70483398 52.11645508 C41 54 41 54 42.6640625 57.37109375 C46.39070407 61.56512347 50.92747196 61.60279299 56.3125 62.3125 C57.33279297 62.46783203 58.35308594 62.62316406 59.40429688 62.78320312 C62.26661374 63.21430838 65.1315351 63.61225616 68 64 C69.41034036 64.2005323 70.82053134 64.40212263 72.23046875 64.60546875 C73.14441406 64.73566406 74.05835938 64.86585937 75 65 C75 65.66 75 66.32 75 67 C66.80082832 66.33006359 58.84086323 64.93503649 50.77148438 63.37304688 C49.37446289 63.10911133 49.37446289 63.10911133 47.94921875 62.83984375 C47.11737061 62.67863037 46.28552246 62.51741699 45.4284668 62.35131836 C42.97375654 61.91322504 42.97375654 61.91322504 40.37036133 62.15405273 C38 62 38 62 36.4453125 60.63330078 C35.79175781 59.67399658 35.79175781 59.67399658 35.125 58.6953125 C34.62145996 57.97577393 34.11791992 57.25623535 33.59912109 56.51489258 C33.07141113 55.72622803 32.54370117 54.93756348 32 54.125 C30.84678297 52.46454586 29.69312473 50.80439807 28.5390625 49.14453125 C27.95286133 48.28939941 27.36666016 47.43426758 26.76269531 46.55322266 C24.02941787 42.59413464 21.20192386 38.70497953 18.375 34.8125 C17.30588247 33.3321086 16.23687119 31.85164046 15.16796875 30.37109375 C10.47790513 23.89019953 5.74195488 17.44297677 1 11 C-5.91341628 19.61034574 -12.59583357 28.33630302 -18.9375 37.375 C-19.43709229 38.08430664 -19.93668457 38.79361328 -20.45141602 39.52441406 C-22.48411109 42.41172414 -24.51571934 45.29934522 -26.5234375 48.20410156 C-27.98217484 50.31190144 -29.45808883 52.40668006 -30.9375 54.5 C-31.37376709 55.14114746 -31.81003418 55.78229492 -32.25952148 56.44287109 C-35.39951557 60.84116051 -35.39951557 60.84116051 -38.26586914 61.59936523 C-39.16813232 61.73157471 -40.07039551 61.86378418 -41 62 C-41.97904297 62.18892822 -42.95808594 62.37785645 -43.96679688 62.57250977 C-47.47698764 63.24055283 -50.98838413 63.90199059 -54.5 64.5625 C-55.72332031 64.79646484 -56.94664063 65.03042969 -58.20703125 65.27148438 C-59.38652344 65.49255859 -60.56601563 65.71363281 -61.78125 65.94140625 C-63.3909668 66.24606812 -63.3909668 66.24606812 -65.03320312 66.55688477 C-67.74667188 66.96216338 -70.26282583 67.08577407 -73 67 C-73.33 66.34 -73.66 65.68 -74 65 C-69.375 62.875 -69.375 62.875 -66 64 C-57.99051175 64.05706858 -47.48113988 63.44620741 -40.95556641 58.42773438 C-37.39687335 54.52378728 -34.89224776 49.99072746 -32.36572266 45.37744141 C-30.07219396 41.38488109 -27.30539119 37.75385622 -24.5625 34.0625 C-23.47855414 32.56909613 -22.39653132 31.07429464 -21.31640625 29.578125 C-20.77516113 28.83111328 -20.23391602 28.08410156 -19.67626953 27.31445312 C-16.78061631 23.31637673 -13.89046287 19.31432951 -11 15.3125 C-10.47220947 14.58232666 -9.94441895 13.85215332 -9.40063477 13.09985352 C-6.25292851 8.74323463 -3.12022569 4.37634595 0 0 Z " fill="#E8E2C9" transform="translate(131,40)"/>
<path d="M0 0 C1.22460938 0.00322266 2.44921875 0.00644531 3.7109375 0.00976562 C5.56332031 0.02233398 5.56332031 0.02233398 7.453125 0.03515625 C8.73445313 0.03966797 10.01578125 0.04417969 11.3359375 0.04882812 C14.45838431 0.06047905 17.58072818 0.076836 20.703125 0.09765625 C20.703125 0.75765625 20.703125 1.41765625 20.703125 2.09765625 C18.07895548 2.45930148 15.45412187 2.81226778 12.828125 3.16015625 C12.08175781 3.26392578 11.33539063 3.36769531 10.56640625 3.47460938 C4.9296875 4.2109375 4.9296875 4.2109375 2.703125 3.09765625 C2.703125 3.75765625 2.703125 4.41765625 2.703125 5.09765625 C1.754375 5.05640625 0.805625 5.01515625 -0.171875 4.97265625 C-3.39932356 4.74791807 -3.39932356 4.74791807 -5.296875 7.09765625 C-9.99118375 8.21534881 -14.50210795 8.26019073 -19.296875 8.09765625 C-19.791875 7.60265625 -19.791875 7.60265625 -20.296875 7.09765625 C-23.36243683 7.51609115 -26.39076498 8.00059059 -29.4375 8.53125 C-31.38198031 8.85598675 -33.3267354 9.17908136 -35.27172852 9.50073242 C-36.29678497 9.67075775 -37.32184143 9.84078308 -38.37796021 10.01596069 C-53.16835095 12.43922091 -67.84084342 14.79434127 -82.859375 14.78515625 C-84.5005127 14.79470337 -84.5005127 14.79470337 -86.17480469 14.80444336 C-94.37465641 14.62064475 -104.36856208 13.63641113 -110.67016602 7.9597168 C-111.20697998 7.34523682 -111.74379395 6.73075684 -112.296875 6.09765625 C-108.85082338 4.94897238 -107.3805497 5.31093218 -103.86376953 6.01586914 C-97.60022471 7.1317867 -91.57933134 7.440879 -85.2265625 7.40625 C-83.5525386 7.40074379 -83.5525386 7.40074379 -81.84469604 7.39512634 C-69.26440166 7.23651981 -56.88708086 5.75344642 -44.421875 4.16015625 C-41.01129646 3.73911215 -37.60020623 3.32247515 -34.18893433 2.90708923 C-32.09801039 2.65093886 -30.0075641 2.39084078 -27.91775513 2.12574768 C-18.63858948 0.96083142 -9.36262853 -0.04416334 0 0 Z M-13.296875 5.09765625 C-13.296875 5.42765625 -13.296875 5.75765625 -13.296875 6.09765625 C-11.316875 6.09765625 -9.336875 6.09765625 -7.296875 6.09765625 C-7.296875 5.76765625 -7.296875 5.43765625 -7.296875 5.09765625 C-9.276875 5.09765625 -11.256875 5.09765625 -13.296875 5.09765625 Z " fill="#FBA12B" transform="translate(151.296875,172.90234375)"/>
<path d="M0 0 C2.09375 -0.36328125 2.09375 -0.36328125 4.5 -0.3125 C5.69109375 -0.30669922 5.69109375 -0.30669922 6.90625 -0.30078125 C9 0 9 0 11 2 C11.30059943 4.36509361 11.49515012 6.74441881 11.625 9.125 C11.69976562 10.40632812 11.77453125 11.68765625 11.8515625 13.0078125 C11.92503906 14.48894531 11.92503906 14.48894531 12 16 C10.02 16.99 10.02 16.99 8 18 C11.465 17.505 11.465 17.505 15 17 C15.33 13.37 15.66 9.74 16 6 C15.34 6 14.68 6 14 6 C14 4.35 14 2.7 14 1 C22.25 1 30.5 1 39 1 C39 2.32 39 3.64 39 5 C37.68 5 36.36 5 35 5 C35 12.59 35 20.18 35 28 C33.35 28 31.7 28 30 28 C30 20.41 30 12.82 30 5 C27.36 5 24.72 5 22 5 C22 12.59 22 20.18 22 28 C20.02 28 18.04 28 16 28 C16 26.35 16 24.7 16 23 C15.01 23.33 14.02 23.66 13 24 C6.07216495 24.43986254 6.07216495 24.43986254 2.5625 23 C0.14966799 19.91157502 0.3689428 16.87389935 0 13 C-0.66 12.34 -1.32 11.68 -2 11 C-2.46376812 3.69565217 -2.46376812 3.69565217 0 0 Z M3 6 C3.33 6.99 3.66 7.98 4 9 C4.33 8.01 4.66 7.02 5 6 C4.34 6 3.68 6 3 6 Z " fill="#D00F0F" transform="translate(218,118)"/>
<path d="M0 0 C0.66 0.33 1.32 0.66 2 1 C1.9071875 1.87914062 1.814375 2.75828125 1.71875 3.6640625 C2.08159647 7.96782478 3.52445648 9.31680249 6.5 12.375 C7.3353125 13.24898437 8.170625 14.12296875 9.03125 15.0234375 C9.6809375 15.67570313 10.330625 16.32796875 11 17 C13.86724686 16.42655063 14.8614515 16.1385485 17 14 C16.45275433 17.8307197 14.71844729 19.36924456 12 22 C12 22.66 12 23.32 12 24 C15.56059679 27.12499186 19.39874985 29.33581428 24.1875 29.5 C27.96811114 29.00418215 29.98110687 28.26416985 33 26 C33.69480469 26.48082031 34.38960937 26.96164063 35.10546875 27.45703125 C38.36370494 29.1938778 40.64789746 29.48614821 44.3125 29.6875 C45.91544922 29.78611328 45.91544922 29.78611328 47.55078125 29.88671875 C48.35902344 29.92410156 49.16726562 29.96148437 50 30 C49.67 32.97 49.34 35.94 49 39 C40.125 38.125 40.125 38.125 39 37 C38.505 37.99 38.505 37.99 38 39 C35.36 39 32.72 39 30 39 C29.67 40.32 29.34 41.64 29 43 C26.75 42.875 26.75 42.875 24 42 C21.68691875 39.04439618 20.18644952 36.55934855 19 33 C18.67 34.98 18.34 36.96 18 39 C16.52031676 38.85950482 15.04125484 38.71245174 13.5625 38.5625 C12.73878906 38.48128906 11.91507813 38.40007812 11.06640625 38.31640625 C9 38 9 38 8 37 C7.67 37.66 7.34 38.32 7 39 C5.5459375 38.7215625 5.5459375 38.7215625 4.0625 38.4375 C3.051875 38.293125 2.04125 38.14875 1 38 C0.505 38.495 0.505 38.495 0 39 C-1.8150957 38.96212481 -3.62886085 38.84507974 -5.4375 38.6875 C-6.42621094 38.60886719 -7.41492188 38.53023437 -8.43359375 38.44921875 C-11 38 -11 38 -13 36 C-12.505 33.03 -12.505 33.03 -12 30 C-4.41 30 3.18 30 11 30 C10.16537965 25.28941438 10.16537965 25.28941438 9 22 C9 20.68 9 19.36 9 18 C7.32639177 15.87911166 7.32639177 15.87911166 5.125 13.9375 C-0.92254243 8.29095949 -0.92254243 8.29095949 -1.1875 3.875 C-1 1 -1 1 0 0 Z " fill="#AFAFAF" transform="translate(142,128)"/>
<path d="M0 0 C0.99 0.33 1.98 0.66 3 1 C3.37329575 2.32270147 3.69864288 3.65907764 4 5 C10.03424551 15.59928342 18.38787085 22.32099532 30.15136719 25.59960938 C37.40574973 27.17841263 44.47075912 27.30618527 51.875 27.25 C53.79058716 27.24093628 53.79058716 27.24093628 55.74487305 27.23168945 C70.18283234 27.08194633 84.098288 25.7345714 98.2578125 22.9140625 C114.75217099 19.66506258 131.42717191 17.16201002 148.0625 14.75 C149.17206055 14.58701416 150.28162109 14.42402832 151.42480469 14.25610352 C178.43510951 10.42223818 205.72888193 10.26760819 232 18 C234.66136044 18.69126245 237.32923347 19.34593473 240 20 C240 20.66 240 21.32 240 22 C235.14716625 20.96010705 230.35271036 19.82732661 225.56176758 18.52905273 C191.92367383 9.6276302 157.10017584 15.72247743 123.359375 21.1953125 C121.53065605 21.4915451 121.53065605 21.4915451 119.66499329 21.79376221 C113.53148591 22.78967276 107.4002893 23.79733639 101.2722168 24.82617188 C39.39522548 35.11050499 39.39522548 35.11050499 14.6875 21.125 C7.79299778 15.67353312 3.27858069 10.26444071 0 2 C0 1.34 0 0.68 0 0 Z " fill="#D9E7D9" transform="translate(11,167)"/>
<path d="M0 0 C6.625 0.75 6.625 0.75 10 3 C9.67 3.33 9.34 3.66 9 4 C8.77081758 8.01657143 8.77081758 8.01657143 9 12 C9.66 12.66 10.32 13.32 11 14 C11.33669385 16.04573478 11.44069172 18.05600952 11.55859375 20.125 C11.8705797 22.40685245 11.8705797 22.40685245 15 24 C17.74518321 24.24187651 17.74518321 24.24187651 20.6875 24.125 C21.68136719 24.10695312 22.67523438 24.08890625 23.69921875 24.0703125 C24.45847656 24.04710937 25.21773437 24.02390625 26 24 C26 25.65 26 27.3 26 29 C27.98 29 29.96 29 32 29 C32 21.41 32 13.82 32 6 C34.64 6 37.28 6 40 6 C40 13.59 40 21.18 40 29 C41.65 29 43.3 29 45 29 C45 21.41 45 13.82 45 6 C46.32 6 47.64 6 49 6 C49 4.68 49 3.36 49 2 C40.75 2 32.5 2 24 2 C24 3.65 24 5.3 24 7 C24.66 7 25.32 7 26 7 C26 10.63 26 14.26 26 18 C25.01 18 24.02 18 23 18 C23.495 17.505 23.495 17.505 24 17 C24.23192865 15.48530552 24.41215238 13.96245438 24.5625 12.4375 C24.64628906 11.61121094 24.73007813 10.78492187 24.81640625 9.93359375 C24.90728516 8.97646484 24.90728516 8.97646484 25 8 C23.68 8.33 22.36 8.66 21 9 C21.33 6.36 21.66 3.72 22 1 C31.24 1 40.48 1 50 1 C50 3.31 50 5.62 50 8 C48.68 8 47.36 8 46 8 C46 15.26 46 22.52 46 30 C43.36 30 40.72 30 38 30 C38 22.74 38 15.48 38 8 C36.35 8 34.7 8 33 8 C33 15.26 33 22.52 33 30 C30.36 30 27.72 30 25 30 C25 28.68 25 27.36 25 26 C24.40832031 26.10699219 23.81664062 26.21398437 23.20703125 26.32421875 C16.72346822 27.30785882 16.72346822 27.30785882 13.0625 25.75 C11 24 11 24 9 21 C9.020625 20.030625 9.04125 19.06125 9.0625 18.0625 C8.99033482 14.52640604 8.18784211 13.64364256 6 11 C6 10.01 6 9.02 6 8 C5.01 8 4.02 8 3 8 C3 15.26 3 22.52 3 30 C0.36 30 -2.28 30 -5 30 C-5 28.68 -5 27.36 -5 26 C-6.5159375 26.3403125 -6.5159375 26.3403125 -8.0625 26.6875 C-12.68309424 27.05421383 -14.99768947 26.27582363 -19 24 C-20.80793576 21.96607227 -20.99143656 20.71790213 -21.0234375 18.03515625 C-20.875 15.875 -20.875 15.875 -20 12 C-17.9375 10.5 -17.9375 10.5 -16 10 C-16.99 11.485 -16.99 11.485 -18 13 C-18.35165817 14.9504073 -18.35165817 14.9504073 -18.3125 17 C-18.32925781 17.680625 -18.34601563 18.36125 -18.36328125 19.0625 C-17.87452419 21.66920431 -17.18384873 22.49918481 -15 24 C-12.25756437 24.36270484 -12.25756437 24.36270484 -9.3125 24.1875 C-7.82169922 24.14689453 -7.82169922 24.14689453 -6.30078125 24.10546875 C-5.54152344 24.07066406 -4.78226563 24.03585938 -4 24 C-4 25.65 -4 27.3 -4 29 C-2.02 29 -0.04 29 2 29 C2 21.41 2 13.82 2 6 C3.32 6 4.64 6 6 6 C6 4.68 6 3.36 6 2 C4.02 2 2.04 2 0 2 C0 1.34 0 0.68 0 0 Z " fill="#E8B5B5" transform="translate(208,117)"/>
<path d="M0 0 C3.26294757 1.08764919 3.62169918 1.48851217 5.4609375 4.18359375 C5.92556396 4.85447021 6.39019043 5.52534668 6.86889648 6.21655273 C7.36591064 6.94946533 7.8629248 7.68237793 8.375 8.4375 C9.45603589 10.00068882 10.53810082 11.5631664 11.62109375 13.125 C12.17909668 13.93324219 12.73709961 14.74148437 13.31201172 15.57421875 C15.97215931 19.39707476 18.70284632 23.16775354 21.4375 26.9375 C22.23667847 28.04194458 22.23667847 28.04194458 23.05200195 29.16870117 C25.2911417 32.26292563 27.53271012 35.35538685 29.77441406 38.44775391 C31.53799838 40.88119338 33.30026657 43.31558216 35.0625 45.75 C35.59866943 46.48855225 36.13483887 47.22710449 36.68725586 47.98803711 C37.44727905 49.03809937 37.44727905 49.03809937 38.22265625 50.109375 C38.95633423 51.10287964 38.95633423 51.10287964 39.70483398 52.11645508 C41 54 41 54 42.6640625 57.37109375 C46.39070407 61.56512347 50.92747196 61.60279299 56.3125 62.3125 C57.33279297 62.46783203 58.35308594 62.62316406 59.40429688 62.78320312 C62.26661374 63.21430838 65.1315351 63.61225616 68 64 C69.41034036 64.2005323 70.82053134 64.40212263 72.23046875 64.60546875 C73.14441406 64.73566406 74.05835938 64.86585937 75 65 C75 65.66 75 66.32 75 67 C66.80082832 66.33006359 58.84086323 64.93503649 50.77148438 63.37304688 C49.84013672 63.19708984 48.90878906 63.02113281 47.94921875 62.83984375 C47.11737061 62.67863037 46.28552246 62.51741699 45.4284668 62.35131836 C42.97375654 61.91322504 42.97375654 61.91322504 40.37036133 62.15405273 C38 62 38 62 36.4453125 60.63330078 C36.00960937 59.99376465 35.57390625 59.35422852 35.125 58.6953125 C34.62145996 57.97577393 34.11791992 57.25623535 33.59912109 56.51489258 C33.07141113 55.72622803 32.54370117 54.93756348 32 54.125 C30.84678297 52.46454586 29.69312473 50.80439807 28.5390625 49.14453125 C27.95286133 48.28939941 27.36666016 47.43426758 26.76269531 46.55322266 C24.02942986 42.59415201 21.20247073 38.70456497 18.375 34.8125 C17.30307252 33.33225779 16.2314553 31.85179084 15.16015625 30.37109375 C14.63824707 29.65034668 14.11633789 28.92959961 13.57861328 28.18701172 C11.98167913 25.97461826 10.39470335 23.7553189 8.80859375 21.53515625 C7.81011768 20.14827776 6.81142974 18.76155176 5.8125 17.375 C5.35472168 16.72893799 4.89694336 16.08287598 4.42529297 15.41723633 C3.33254257 13.90809095 2.17252484 12.44803615 1 11 C0.34 11 -0.32 11 -1 11 C-0.67 10.01 -0.34 9.02 0 8 C3.26294757 9.08764919 3.62169918 9.48851217 5.4609375 12.18359375 C5.9257251 12.85471191 6.3905127 13.52583008 6.86938477 14.21728516 C7.36623779 14.94995605 7.86309082 15.68262695 8.375 16.4375 C9.45344128 17.99677602 10.53290239 19.5553471 11.61328125 21.11328125 C12.17096191 21.92104004 12.72864258 22.72879883 13.30322266 23.56103516 C16.0088133 27.45007839 18.78255812 31.28890483 21.5625 35.125 C22.0989917 35.86540527 22.6354834 36.60581055 23.18823242 37.36865234 C24.26002378 38.84659452 25.33236485 40.32413821 26.40527344 41.80126953 C28.00641949 44.00885087 29.60107873 46.22101731 31.1953125 48.43359375 C32.19242735 49.81009942 33.1898104 51.18641086 34.1875 52.5625 C34.64519775 53.20010254 35.10289551 53.83770508 35.57446289 54.49462891 C37.8314688 57.74913268 37.8314688 57.74913268 41 60 C33.74020463 49.32126292 26.29727862 38.79317774 18.70556641 28.34814453 C15.73453015 24.25775995 12.77363812 20.16005252 9.8125 16.0625 C9.25965332 15.2988916 8.70680664 14.5352832 8.13720703 13.74853516 C7.62399902 13.03874512 7.11079102 12.32895508 6.58203125 11.59765625 C5.90491089 10.66191772 5.90491089 10.66191772 5.21411133 9.70727539 C4.11300446 8.15890613 3.05391339 6.58087009 2 5 C1.34 5 0.68 5 0 5 C-1.38232443 6.62626404 -2.71937515 8.2925002 -4 10 C-4.66 9.34 -5.32 8.68 -6 8 C-4.02 5.36 -2.04 2.72 0 0 Z " fill="#DDE6D5" transform="translate(131,40)"/>
<path d="M0 0 C3.375 -0.125 3.375 -0.125 7 0 C7.66 0.66 8.32 1.32 9 2 C11.89223503 2.46396693 11.89223503 2.46396693 15.125 2.625 C16.76855469 2.73714844 16.76855469 2.73714844 18.4453125 2.8515625 C19.70988281 2.92503906 19.70988281 2.92503906 21 3 C21 4.98 21 6.96 21 9 C21.99 9.33 22.98 9.66 24 10 C23.67 11.32 23.34 12.64 23 14 C22.01 14 21.02 14 20 14 C20 13.34 20 12.68 20 12 C18.58456585 11.80341192 17.16755969 11.61812454 15.75 11.4375 C14.96109375 11.33308594 14.1721875 11.22867188 13.359375 11.12109375 C10.96549602 10.9982291 9.29494706 11.38036429 7 12 C5.68 12 4.36 12 3 12 C1.22590192 13.92022703 1.22590192 13.92022703 0 16 C-1.65 15.67 -3.3 15.34 -5 15 C-6.59138085 10.82262526 -7.21278058 7.46839215 -7 3 C-4.69 3 -2.38 3 0 3 C0 2.01 0 1.02 0 0 Z M-1 6 C0 8 0 8 0 8 Z " fill="#C8C8C8" transform="translate(106,155)"/>
<path d="M0 0 C0.66 0 1.32 0 2 0 C2.37125 1.2375 2.7425 2.475 3.125 3.75 C4.76397547 8.11802424 6.76691087 9.88345543 11 12 C13.7282504 12.78215588 13.7282504 12.78215588 16 13 C16 13.66 16 14.32 16 15 C15.39671875 15.21914063 14.7934375 15.43828125 14.171875 15.6640625 C8.71886364 17.82767669 5.77067332 19.57409809 3 25 C2.67 25.99 2.34 26.98 2 28 C1.34 28 0.68 28 0 28 C-0.24234375 27.45730469 -0.4846875 26.91460937 -0.734375 26.35546875 C-3.38103507 20.70586744 -5.23470768 18.01039527 -11.25 15.8125 C-12.1575 15.544375 -13.065 15.27625 -14 15 C-14 14.34 -14 13.68 -14 13 C-12.948125 12.79375 -11.89625 12.5875 -10.8125 12.375 C-6.4602731 11.1327652 -4.55356148 8.72090387 -2 5 C-0.6950516 2.2875382 -0.6950516 2.2875382 0 0 Z " fill="#FD9711" transform="translate(166,23)"/>
<path d="M0 0 C9.24 0 18.48 0 28 0 C28 0.66 28 1.32 28 2 C25.37583048 2.36164523 22.75099687 2.71461153 20.125 3.0625 C19.37863281 3.16626953 18.63226563 3.27003906 17.86328125 3.37695312 C12.2265625 4.11328125 12.2265625 4.11328125 10 3 C10 3.66 10 4.32 10 5 C9.05125 4.95875 8.1025 4.9175 7.125 4.875 C3.89755144 4.65026182 3.89755144 4.65026182 2 7 C-2.69430875 8.11769256 -7.20523295 8.16253448 -12 8 C-12.495 7.505 -12.495 7.505 -13 7 C-16.06556183 7.4184349 -19.09388998 7.90293434 -22.140625 8.43359375 C-24.08510531 8.7583305 -26.0298604 9.08142511 -27.97485352 9.40307617 C-28.99990997 9.5731015 -30.02496643 9.74312683 -31.08108521 9.91830444 C-45.87147595 12.34156466 -60.54396842 14.69668502 -75.5625 14.6875 C-77.2036377 14.69704712 -77.2036377 14.69704712 -78.87792969 14.70678711 C-87.07778141 14.5229885 -97.07168708 13.53875488 -103.37329102 7.86206055 C-103.91010498 7.24758057 -104.44691895 6.63310059 -105 6 C-101.56533247 6 -100.02371459 7.07931158 -97.20703125 8.9296875 C-90.78332277 12.04490188 -84.36664046 12.29144458 -77.375 12.1875 C-76.17423828 12.1865332 -76.17423828 12.1865332 -74.94921875 12.18554688 C-62.38293644 12.09677408 -50.12952674 10.7189262 -37.75 8.625 C-36.38339873 8.39882142 -35.01669826 8.1732415 -33.64990234 7.94824219 C-29.76522382 7.30695531 -25.88240821 6.65490179 -22 6 C-20.50098145 5.74718262 -20.50098145 5.74718262 -18.97167969 5.48925781 C-18.09157227 5.34069336 -17.21146484 5.19212891 -16.3046875 5.0390625 C-15.09087402 4.83482666 -15.09087402 4.83482666 -13.85253906 4.62646484 C-11.80982939 4.28123706 -9.76814104 3.92998022 -7.7265625 3.578125 C-3.49459085 2.92159271 0.74070898 2.43779104 5 2 C3.35 1.67 1.7 1.34 0 1 C0 0.67 0 0.34 0 0 Z M-6 5 C-6 5.33 -6 5.66 -6 6 C-4.02 6 -2.04 6 0 6 C0 5.67 0 5.34 0 5 C-1.98 5 -3.96 5 -6 5 Z " fill="#F4EBDF" transform="translate(144,173)"/>
<path d="M0 0 C1.65 0 3.3 0 5 0 C5.33 0.99 5.66 1.98 6 3 C6.66 3 7.32 3 8 3 C7.67 5.97 7.34 8.94 7 12 C-1.875 11.125 -1.875 11.125 -3 10 C-3.33 10.66 -3.66 11.32 -4 12 C-6.97 11.505 -6.97 11.505 -10 11 C-10.33 12.65 -10.66 14.3 -11 16 C-13.375 15.75 -13.375 15.75 -16 15 C-18.83727519 11.45340601 -18.41857357 7.65141148 -19 3 C-12.73 3 -6.46 3 0 3 C0 2.01 0 1.02 0 0 Z " fill="#D9D9D9" transform="translate(90,155)"/>
<path d="M0 0 C0.66 0 1.32 0 2 0 C2.32017386 4.11491055 1.67649207 6.06131171 -0.7734375 9.35546875 C-1.6396875 10.53592773 -1.6396875 10.53592773 -2.5234375 11.74023438 C-3.43996094 12.95163086 -3.43996094 12.95163086 -4.375 14.1875 C-4.97828125 15.00669922 -5.5815625 15.82589844 -6.203125 16.66992188 C-10.58370536 22.58370536 -10.58370536 22.58370536 -13 25 C-14.84815236 25.27009822 -16.69912291 25.52738506 -18.55712891 25.71826172 C-21.27499474 26.03171536 -23.94406955 26.48854893 -26.63671875 26.97265625 C-27.62607422 27.14990234 -28.61542969 27.32714844 -29.63476562 27.50976562 C-31.68195419 27.8804338 -33.72882696 28.25285009 -35.77539062 28.62695312 C-36.76087891 28.80291016 -37.74636719 28.97886719 -38.76171875 29.16015625 C-39.64819092 29.32136963 -40.53466309 29.48258301 -41.44799805 29.64868164 C-44.0001945 30.00002678 -46.42732684 30.06215583 -49 30 C-49.33 29.34 -49.66 28.68 -50 28 C-45.375 25.875 -45.375 25.875 -42 27 C-34.17108637 26.89248059 -23.40044128 26.38211244 -17.02294922 21.48046875 C-14.45988842 18.63944775 -12.64194073 15.58800244 -10.8671875 12.21484375 C-8.85961699 8.75829453 -7.45128588 7.82417068 -4 6 C-2.63988391 4.01811655 -1.30208796 2.02048131 0 0 Z " fill="#EDE2C9" transform="translate(107,77)"/>
<path d="M0 0 C1.98828125 0.37109375 1.98828125 0.37109375 3.98828125 2.37109375 C-0.30171875 3.03109375 -4.59171875 3.69109375 -9.01171875 4.37109375 C-9.01171875 6.68109375 -9.01171875 8.99109375 -9.01171875 11.37109375 C-7.69171875 11.70109375 -6.37171875 12.03109375 -5.01171875 12.37109375 C-5.05296875 11.58734375 -5.09421875 10.80359375 -5.13671875 9.99609375 C-5.01171875 7.37109375 -5.01171875 7.37109375 -3.01171875 5.37109375 C-0.56338535 5.60802924 0.7702383 6.20756154 2.73828125 7.68359375 C3.98828125 9.37109375 3.98828125 9.37109375 3.98828125 13.37109375 C-3.78365365 14.20646487 -11.48358227 14.45298951 -19.29296875 14.43359375 C-20.28454483 14.4322644 -21.27612091 14.43093506 -22.29774475 14.42956543 C-34.6839422 14.39159584 -47.06605386 14.12956424 -59.44921875 13.87109375 C-61.84960514 13.82270607 -64.24999576 13.77452798 -66.65039062 13.7265625 C-72.43755081 13.61047706 -78.22465426 13.49185073 -84.01171875 13.37109375 C-84.01171875 14.69109375 -84.01171875 16.01109375 -84.01171875 17.37109375 C-83.02171875 17.37109375 -82.03171875 17.37109375 -81.01171875 17.37109375 C-81.01171875 19.68109375 -81.01171875 21.99109375 -81.01171875 24.37109375 C-81.67171875 24.37109375 -82.33171875 24.37109375 -83.01171875 24.37109375 C-83.01171875 22.72109375 -83.01171875 21.07109375 -83.01171875 19.37109375 C-83.67171875 19.37109375 -84.33171875 19.37109375 -85.01171875 19.37109375 C-85.01171875 17.06109375 -85.01171875 14.75109375 -85.01171875 12.37109375 C-60.92171875 12.04109375 -36.83171875 11.71109375 -12.01171875 11.37109375 C-12.01171875 9.39109375 -12.01171875 7.41109375 -12.01171875 5.37109375 C-8.62518088 0.34590853 -5.68537644 -0.16243933 0 0 Z M-3.01171875 7.37109375 C-3.60241889 9.31712649 -3.60241889 9.31712649 -4.01171875 11.37109375 C-2.8863777 12.72727874 -2.8863777 12.72727874 0.05078125 12.43359375 C1.02015625 12.41296875 1.98953125 12.39234375 2.98828125 12.37109375 C1.70539368 9.81605418 1.70539368 9.81605418 -0.01171875 7.37109375 C-1.00171875 7.37109375 -1.99171875 7.37109375 -3.01171875 7.37109375 Z " fill="#828282" transform="translate(116.01171875,105.62890625)"/>
<path d="M0 0 C1.11375 0.7115625 1.11375 0.7115625 2.25 1.4375 C7.10460084 3.92343086 12.65477938 3.7491725 18 4 C17.67 6.97 17.34 9.94 17 13 C15.576875 12.835 14.15375 12.67 12.6875 12.5 C10.08186701 12.19789762 7.62834278 12 5 12 C4.67 11.01 4.34 10.02 4 9 C4.33 8.34 4.66 7.68 5 7 C3.68 7.99 2.36 8.98 1 10 C1 9.01 1 8.02 1 7 C0.34 6.67 -0.32 6.34 -1 6 C-1 7.98 -1 9.96 -1 12 C-1.33 12 -1.66 12 -2 12 C-2 10.02 -2 8.04 -2 6 C-2.66 6 -3.32 6 -4 6 C-4 6.99 -4 7.98 -4 9 C-4.99 9.33 -5.98 9.66 -7 10 C-6.67 10.66 -6.34 11.32 -6 12 C-7.9375 11.375 -7.9375 11.375 -10 10 C-10.75 6.875 -10.75 6.875 -11 4 C-10.37351563 3.87882813 -9.74703125 3.75765625 -9.1015625 3.6328125 C-8.28429687 3.46523437 -7.46703125 3.29765625 -6.625 3.125 C-5.81289062 2.96257812 -5.00078125 2.80015625 -4.1640625 2.6328125 C-1.81326077 2.13341068 -1.81326077 2.13341068 0 0 Z " fill="#B7B4B4" transform="translate(174,154)"/>
<path d="M0 0 C2.97 0.495 2.97 0.495 6 1 C6.33 1.99 6.66 2.98 7 4 C7.66 4.33 8.32 4.66 9 5 C9.625 7.0625 9.625 7.0625 10 9 C10 8.34 10 7.68 10 7 C11.32 7 12.64 7 14 7 C14 6.01 14 5.02 14 4 C15.99954746 3.95745644 18.00041636 3.95919217 20 4 C20.33 4.33 20.66 4.66 21 5 C21.66 5 22.32 5 23 5 C23.495 7.97 23.495 7.97 24 11 C21.36 11 18.72 11 16 11 C15.67 12.32 15.34 13.64 15 15 C12.75 14.875 12.75 14.875 10 14 C7.68691875 11.04439618 6.18644952 8.55934855 5 5 C4.67 6.98 4.34 8.96 4 11 C2.52031676 10.85950482 1.04125484 10.71245174 -0.4375 10.5625 C-1.26121094 10.48128906 -2.08492187 10.40007812 -2.93359375 10.31640625 C-5 10 -5 10 -6 9 C-6.33 9.66 -6.66 10.32 -7 11 C-7.99 11 -8.98 11 -10 11 C-10.33 9.68 -10.66 8.36 -11 7 C-10.34 7 -9.68 7 -9 7 C-8.34 5.68 -7.68 4.36 -7 3 C-5.02 3 -3.04 3 -1 3 C-1 4.65 -1 6.3 -1 8 C-0.67 6.68 -0.34 5.36 0 4 C0.66 4 1.32 4 2 4 C2.33 3.34 2.66 2.68 3 2 C2.01 2 1.02 2 0 2 C0 1.34 0 0.68 0 0 Z " fill="#EDEBEB" transform="translate(156,156)"/>
<path d="M0 0 C3.26294757 1.08764919 3.62169918 1.48851217 5.4609375 4.18359375 C5.92556396 4.85447021 6.39019043 5.52534668 6.86889648 6.21655273 C7.36591064 6.94946533 7.8629248 7.68237793 8.375 8.4375 C9.45603589 10.00068882 10.53810082 11.5631664 11.62109375 13.125 C12.17909668 13.93324219 12.73709961 14.74148437 13.31201172 15.57421875 C15.97216437 19.39708203 18.70314169 23.16753203 21.4375 26.9375 C21.96738525 27.670896 22.49727051 28.40429199 23.04321289 29.15991211 C25.91907898 33.13864837 28.80878948 37.10679845 31.7109375 41.06640625 C32.31365479 41.89213135 32.91637207 42.71785645 33.53735352 43.56860352 C34.70055646 45.1618284 35.86757914 46.75227314 37.03881836 48.33959961 C37.55839111 49.05253174 38.07796387 49.76546387 38.61328125 50.5 C39.07516846 51.1290625 39.53705566 51.758125 40.01293945 52.40625 C41 54 41 54 41 56 C36.83333805 54.48828591 34.94919661 51.52920172 32.5625 48 C31.67661536 46.72468061 30.78985301 45.44997059 29.90234375 44.17578125 C29.43296387 43.49725098 28.96358398 42.8187207 28.47998047 42.11962891 C25.91085778 38.44012987 23.26321737 34.81760529 20.625 31.1875 C17.23105748 26.51250066 13.86403988 21.82325748 10.57421875 17.07421875 C10.02620605 16.28571533 9.47819336 15.49721191 8.91357422 14.68481445 C7.86384923 13.17041249 6.81969029 11.65213382 5.78173828 10.12963867 C4.57048263 8.38447153 3.29160861 6.68656331 2 5 C-0.12364481 4.77390663 -0.12364481 4.77390663 -1.625 6.5 C-2.07875 6.995 -2.5325 7.49 -3 8 C-3.33 7.34 -3.66 6.68 -4 6 C-2.68 4.02 -1.36 2.04 0 0 Z " fill="#FB9F24" transform="translate(131,44)"/>
<path d="M0 0 C2 2 2 2 2 5 C3.65 5 5.3 5 7 5 C7 7.31 7 9.62 7 12 C5.68 12 4.36 12 3 12 C3 19.26 3 26.52 3 34 C0.36 34 -2.28 34 -5 34 C-5 26.74 -5 19.48 -5 12 C-6.65 12 -8.3 12 -10 12 C-10 19.26 -10 26.52 -10 34 C-12.64 34 -15.28 34 -18 34 C-18.33 29.38 -18.66 24.76 -19 20 C-18.01 19.67 -17.02 19.34 -16 19 C-16 23.62 -16 28.24 -16 33 C-14.35 33 -12.7 33 -11 33 C-11 25.41 -11 17.82 -11 10 C-8.36 10 -5.72 10 -3 10 C-3 17.59 -3 25.18 -3 33 C-1.35 33 0.3 33 2 33 C2 25.41 2 17.82 2 10 C3.32 10 4.64 10 6 10 C6 8.68 6 7.36 6 6 C4.35 6 2.7 6 1 6 C0.67 4.02 0.34 2.04 0 0 Z " fill="#A5A5A5" transform="translate(124,113)"/>
<path d="M0 0 C8.91 0 17.82 0 27 0 C27 1.65 27 3.3 27 5 C25.02 5 23.04 5 21 5 C22.32 4.67 23.64 4.34 25 4 C25 3.34 25 2.68 25 2 C17.08 2 9.16 2 1 2 C1 9.26 1 16.52 1 24 C-1.64 24 -4.28 24 -7 24 C-7.495 21.525 -7.495 21.525 -8 19 C-9.2375 19.04125 -10.475 19.0825 -11.75 19.125 C-15.00644202 19.11349314 -17.33396004 19.05079997 -20 17 C-22.09607522 13.70616751 -22.21683808 11.1071994 -22.125 7.25 C-22.10695313 6.26515625 -22.08890625 5.2803125 -22.0703125 4.265625 C-22.04710937 3.51796875 -22.02390625 2.7703125 -22 2 C-23.65 2 -25.3 2 -27 2 C-27 1.67 -27 1.34 -27 1 C-25.02 1 -23.04 1 -21 1 C-20.96261719 1.66386719 -20.92523438 2.32773438 -20.88671875 3.01171875 C-20.61957805 10.20886109 -20.61957805 10.20886109 -17 16 C-13.33541832 16.71451223 -9.72815787 16.93037396 -6 17 C-6 18.98 -6 20.96 -6 23 C-4.02 23 -2.04 23 0 23 C0 15.41 0 7.82 0 0 Z " fill="#D2D2D2" transform="translate(81,123)"/>
<path d="M0 0 C3 1 3 1 4.375 3.4375 C6.2836851 6.44734958 7.64965669 7.00395199 11 8 C11 8.66 11 9.32 11 10 C9.6078125 10.5878125 9.6078125 10.5878125 8.1875 11.1875 C4.74078196 13.14739849 3.83913242 14.59760503 2 18 C1.34 18 0.68 18 0 18 C-0.5878125 16.576875 -0.5878125 16.576875 -1.1875 15.125 C-3.19793856 11.65872662 -4.22699642 11.0197307 -8 10 C-8 9.34 -8 8.68 -8 8 C-7.05125 7.38125 -6.1025 6.7625 -5.125 6.125 C-2.17758128 4.12075527 -1.16146167 3.25209269 0 0 Z " fill="#FBAC43" transform="translate(180,9)"/>
<path d="M0 0 C6.625 0.75 6.625 0.75 10 3 C9.67 3.33 9.34 3.66 9 4 C8.77081758 8.01657143 8.77081758 8.01657143 9 12 C9.66 12.66 10.32 13.32 11 14 C10.625 17.625 10.625 17.625 10 21 C9.67 21 9.34 21 9 21 C9.0928125 19.63875 9.0928125 19.63875 9.1875 18.25 C8.97866055 14.63011615 8.2382 13.70449166 6 11 C6 10.01 6 9.02 6 8 C5.01 8 4.02 8 3 8 C3 15.26 3 22.52 3 30 C0.36 30 -2.28 30 -5 30 C-5 28.68 -5 27.36 -5 26 C-6.5159375 26.3403125 -6.5159375 26.3403125 -8.0625 26.6875 C-12.68309424 27.05421383 -14.99768947 26.27582363 -19 24 C-20.80793576 21.96607227 -20.99143656 20.71790213 -21.0234375 18.03515625 C-20.875 15.875 -20.875 15.875 -20 12 C-17.9375 10.5 -17.9375 10.5 -16 10 C-16.99 11.485 -16.99 11.485 -18 13 C-18.35165817 14.9504073 -18.35165817 14.9504073 -18.3125 17 C-18.32925781 17.680625 -18.34601563 18.36125 -18.36328125 19.0625 C-17.87452419 21.66920431 -17.18384873 22.49918481 -15 24 C-12.25756437 24.36270484 -12.25756437 24.36270484 -9.3125 24.1875 C-7.82169922 24.14689453 -7.82169922 24.14689453 -6.30078125 24.10546875 C-5.54152344 24.07066406 -4.78226563 24.03585938 -4 24 C-4 25.65 -4 27.3 -4 29 C-2.02 29 -0.04 29 2 29 C2 21.41 2 13.82 2 6 C3.32 6 4.64 6 6 6 C6 4.68 6 3.36 6 2 C4.02 2 2.04 2 0 2 C0 1.34 0 0.68 0 0 Z " fill="#EFC8C8" transform="translate(208,117)"/>
<path d="M0 0 C9.24 0 18.48 0 28 0 C28 0.66 28 1.32 28 2 C25.37583048 2.36164523 22.75099687 2.71461153 20.125 3.0625 C19.37863281 3.16626953 18.63226563 3.27003906 17.86328125 3.37695312 C12.2265625 4.11328125 12.2265625 4.11328125 10 3 C10 3.66 10 4.32 10 5 C9.05125 4.95875 8.1025 4.9175 7.125 4.875 C3.89755144 4.65026182 3.89755144 4.65026182 2 7 C-2.69627682 8.11816115 -7.20524584 8.08266818 -12 8 C-12 7.67 -12 7.34 -12 7 C-14.97 6.505 -14.97 6.505 -18 6 C-18 5.67 -18 5.34 -18 5 C-10.41 4.01 -2.82 3.02 5 2 C2.525 1.505 2.525 1.505 0 1 C0 0.67 0 0.34 0 0 Z M-6 5 C-6 5.33 -6 5.66 -6 6 C-4.02 6 -2.04 6 0 6 C0 5.67 0 5.34 0 5 C-1.98 5 -3.96 5 -6 5 Z " fill="#E5DBBA" transform="translate(144,173)"/>
<path d="M0 0 C3.26294757 1.08764919 3.62169918 1.48851217 5.4609375 4.18359375 C5.9257251 4.85471191 6.3905127 5.52583008 6.86938477 6.21728516 C7.36623779 6.94995605 7.86309082 7.68262695 8.375 8.4375 C9.45344128 9.99677602 10.53290239 11.5553471 11.61328125 13.11328125 C12.17096191 13.92104004 12.72864258 14.72879883 13.30322266 15.56103516 C16.00881903 19.45008663 18.78290207 23.28864728 21.5625 27.125 C22.0975415 27.86468018 22.63258301 28.60436035 23.18383789 29.36645508 C28.42347645 36.60139114 33.70496578 43.80554469 39 51 C38.01 51 37.02 51 36 51 C34.04901909 48.73148855 32.30277014 46.48599768 30.5625 44.0625 C30.035354 43.34392822 29.50820801 42.62535645 28.96508789 41.88500977 C24.22003066 35.38758465 19.59823358 28.80144897 14.97265625 22.21875 C11.96297016 17.94167047 8.93640553 13.6777372 5.875 9.4375 C5.41343506 8.78773193 4.95187012 8.13796387 4.47631836 7.46850586 C3.36717677 5.94168715 2.18978794 4.46484644 1 3 C0.34 3 -0.32 3 -1 3 C-0.67 2.01 -0.34 1.02 0 0 Z " fill="#F6E9D8" transform="translate(131,48)"/>
<path d="M0 0 C0.66 0.33 1.32 0.66 2 1 C2.51953125 3.36328125 2.51953125 3.36328125 2.8125 6.3125 C2.92207031 7.27800781 3.03164062 8.24351562 3.14453125 9.23828125 C2.97584372 12.46158076 2.15065761 13.66039573 0 16 C-1.65 15.67 -3.3 15.34 -5 15 C-6.59138085 10.82262526 -7.21278058 7.46839215 -7 3 C-4.69 3 -2.38 3 0 3 C0 2.01 0 1.02 0 0 Z M-1 6 C0 8 0 8 0 8 Z " fill="#DEDEDE" transform="translate(106,155)"/>
<path d="M0 0 C0.66 0 1.32 0 2 0 C0.67351246 6.23121615 -2.03789804 10.40878004 -5.875 15.4375 C-6.40480469 16.16904297 -6.93460938 16.90058594 -7.48046875 17.65429688 C-7.99996094 18.34458984 -8.51945312 19.03488281 -9.0546875 19.74609375 C-9.52374512 20.37185303 -9.99280273 20.9976123 -10.47607422 21.64233398 C-12 23 -12 23 -16 23 C-14.63666252 20.12300422 -13.08654599 17.55962538 -11.25 14.9609375 C-10.7240625 14.21585938 -10.198125 13.47078125 -9.65625 12.703125 C-9.1096875 11.93484375 -8.563125 11.1665625 -8 10.375 C-7.4534375 9.59898438 -6.906875 8.82296875 -6.34375 8.0234375 C-2.26450893 2.26450893 -2.26450893 2.26450893 0 0 Z " fill="#FAB252" transform="translate(125,53)"/>
<path d="M0 0 C3.96 0 7.92 0 12 0 C11.67 2.97 11.34 5.94 11 9 C4.1640625 8.609375 4.1640625 8.609375 2 8 C-0.08028013 5.10021557 0 3.70635293 0 0 Z " fill="#CACACA" transform="translate(180,158)"/>
<path d="M0 0 C2.97 0 5.94 0 9 0 C9 2.97 9 5.94 9 9 C6.03 9 3.06 9 0 9 C0 6.03 0 3.06 0 0 Z " fill="#F0C48B" transform="translate(132,78)"/>
<path d="M0 0 C2.97 0 5.94 0 9 0 C9 2.97 9 5.94 9 9 C6.03 9 3.06 9 0 9 C0 6.03 0 3.06 0 0 Z " fill="#F0C389" transform="translate(122,78)"/>
<path d="M0 0 C2.97 0 5.94 0 9 0 C9 2.97 9 5.94 9 9 C6.03 9 3.06 9 0 9 C0 6.03 0 3.06 0 0 Z " fill="#F3C385" transform="translate(122,68)"/>
<path d="M0 0 C2.97 0 5.94 0 9 0 C9 2.97 9 5.94 9 9 C6.03 9 3.06 9 0 9 C0 6.03 0 3.06 0 0 Z " fill="#F69009" transform="translate(132,68)"/>
<path d="M0 0 C0.33 0.66 0.66 1.32 1 2 C2.65 2 4.3 2 6 2 C6 2.66 6 3.32 6 4 C6.33 3.34 6.66 2.68 7 2 C7.99 2 8.98 2 10 2 C9.67 3.32 9.34 4.64 9 6 C9.66 6 10.32 6 11 6 C11 6.66 11 7.32 11 8 C10.34 8 9.68 8 9 8 C8.67 9.65 8.34 11.3 8 13 C5.625 12.75 5.625 12.75 3 12 C0.32855628 8.66069535 0.41104973 4.11049732 0 0 Z " fill="#DADADA" transform="translate(71,158)"/>
<path d="M0 0 C1.98 0 3.96 0 6 0 C6.33 1.32 6.66 2.64 7 4 C6.01 4 5.02 4 4 4 C4.33 4.66 4.66 5.32 5 6 C5.66 5.67 6.32 5.34 7 5 C7.33 4.01 7.66 3.02 8 2 C9.65 2 11.3 2 13 2 C13 3.32 13 4.64 13 6 C13.66 6 14.32 6 15 6 C15 6.66 15 7.32 15 8 C5.02820306 9.63980661 5.02820306 9.63980661 0 7 C-1.406617 4.09299153 -1.04092665 3.12277995 0 0 Z " fill="#EAEAEA" transform="translate(130,158)"/>
<path d="M0 0 C0.66 0.33 1.32 0.66 2 1 C1.9071875 1.87914062 1.814375 2.75828125 1.71875 3.6640625 C2.08159647 7.96782478 3.52445648 9.31680249 6.5 12.375 C7.3353125 13.24898437 8.170625 14.12296875 9.03125 15.0234375 C9.6809375 15.67570313 10.330625 16.32796875 11 17 C13.86724686 16.42655063 14.8614515 16.1385485 17 14 C16.45275433 17.8307197 14.71844729 19.36924456 12 22 C12 22.66 12 23.32 12 24 C12.66 24.33 13.32 24.66 14 25 C13.01 27.475 13.01 27.475 12 30 C11.87625 29.4225 11.7525 28.845 11.625 28.25 C11.08157207 25.98002631 11.08157207 25.98002631 9.9375 24 C9 22 9 22 9 18 C7.32639177 15.87911166 7.32639177 15.87911166 5.125 13.9375 C-0.92254243 8.29095949 -0.92254243 8.29095949 -1.1875 3.875 C-1 1 -1 1 0 0 Z " fill="#F1DDDD" transform="translate(142,128)"/>
<path d="M0 0 C0.99 0.33 1.98 0.66 3 1 C3.37329575 2.32270147 3.69864288 3.65907764 4 5 C10.80078183 16.94572114 19.65708425 21.69405146 32 27 C30 28 30 28 27.390625 27.14453125 C15.12838996 21.94375743 6.6641782 16.34954457 0.84765625 4.13671875 C0 2 0 2 0 0 Z " fill="#E2ECE2" transform="translate(11,167)"/>
<path d="M0 0 C0.99 0.495 0.99 0.495 2 1 C2.99 1 3.98 1 5 1 C5 1.99 5 2.98 5 4 C5.66 2.68 6.32 1.36 7 0 C7.226875 0.61875 7.45375 1.2375 7.6875 1.875 C9.37929835 4.61410209 10.99244161 5.05024472 14 6 C14 4.02 14 2.04 14 0 C14.33 0 14.66 0 15 0 C15 1.98 15 3.96 15 6 C16.65 5.34 18.3 4.68 20 4 C20.33 5.32 20.66 6.64 21 8 C19.68 8.33 18.36 8.66 17 9 C17 8.34 17 7.68 17 7 C15.58456585 6.80341192 14.16755969 6.61812454 12.75 6.4375 C11.96109375 6.33308594 11.1721875 6.22867188 10.359375 6.12109375 C7.98515342 5.99923801 6.28091627 6.42010603 4 7 C1.75 6.0625 1.75 6.0625 0 5 C0 3.35 0 1.7 0 0 Z " fill="#EDEDED" transform="translate(109,160)"/>
<path d="M0 0 C1.99954746 -0.04254356 4.00041636 -0.04080783 6 0 C6.33 0.33 6.66 0.66 7 1 C7.66 1 8.32 1 9 1 C9.33 2.98 9.66 4.96 10 7 C9.071875 6.95875 8.14375 6.9175 7.1875 6.875 C3.84190281 6.72863661 3.84190281 6.72863661 1 9 C-1.6875 8.625 -1.6875 8.625 -4 8 C-3.34 7.67 -2.68 7.34 -2 7 C-2.66 5.68 -3.32 4.36 -4 3 C-2.68 3 -1.36 3 0 3 C0 2.01 0 1.02 0 0 Z " fill="#CCCCCC" transform="translate(170,160)"/>
<path d="M0 0 C5.84534207 0.53735207 10.79256443 1.74805268 16.25 3.875 C16.94351563 4.13152344 17.63703125 4.38804687 18.3515625 4.65234375 C21.97123557 6.03225743 25.05419605 7.46417908 28 10 C26.04006551 9.57237793 24.08103406 9.14043563 22.125 8.6953125 C19.6492874 8.14446645 17.17209482 7.62510597 14.6875 7.1171875 C13.14571164 6.7870261 11.60404579 6.45629214 10.0625 6.125 C9.30461182 5.97579102 8.54672363 5.82658203 7.76586914 5.67285156 C2.33636596 4.4770281 2.33636596 4.4770281 0.49609375 1.8671875 C0.33238281 1.25101563 0.16867188 0.63484375 0 0 Z " fill="#76B776" transform="translate(221,177)"/>
<path d="M0 0 C-0.33 0.66 -0.66 1.32 -1 2 C-2.32 2 -3.64 2 -5 2 C-3.12782591 7.0253094 -1.49237404 10.77720993 3 14 C7.29653285 14.80704105 10.76272005 14.72426144 14.5625 12.5 C15.036875 12.005 15.51125 11.51 16 11 C15.75 12.875 15.75 12.875 15 15 C11.1656273 17.47046832 7.95586439 17.34212166 3.546875 16.80078125 C-1.06229308 15.35157963 -3.59111296 12.05668401 -6 8 C-6.9375 4.5 -6.9375 4.5 -7 2 C-4.35261084 0.5393715 -3.10551666 0 0 0 Z " fill="#D5D5D5" transform="translate(14,128)"/>
<path d="M0 0 C0.99 0.33 1.98 0.66 3 1 C3.6875 3.0625 3.6875 3.0625 4 5 C1.525 6.485 1.525 6.485 -1 8 C-0.72382467 9.94074861 -0.72382467 9.94074861 0 12 C0.99 12.66 1.98 13.32 3 14 C2.67 15.32 2.34 16.64 2 18 C1.34 18 0.68 18 0 18 C-0.5878125 16.576875 -0.5878125 16.576875 -1.1875 15.125 C-3.19793856 11.65872662 -4.22699642 11.0197307 -8 10 C-8 9.34 -8 8.68 -8 8 C-7.05125 7.38125 -6.1025 6.7625 -5.125 6.125 C-2.17758128 4.12075527 -1.16146167 3.25209269 0 0 Z " fill="#F7D4A5" transform="translate(180,9)"/>
<path d="M0 0 C0.66 0.33 1.32 0.66 2 1 C1.34 1.66 0.68 2.32 0 3 C-0.62929881 8.14943207 -0.62929881 8.14943207 1.1640625 12.7421875 C3.73621913 14.50438843 5.6038645 14.29633419 8.6875 14.1875 C10.17830078 14.14689453 10.17830078 14.14689453 11.69921875 14.10546875 C12.45847656 14.07066406 13.21773437 14.03585938 14 14 C14 15.65 14 17.3 14 19 C16.31 19 18.62 19 21 19 C21 19.33 21 19.66 21 20 C18.36 20 15.72 20 13 20 C13 18.68 13 17.36 13 16 C11.4840625 16.3403125 11.4840625 16.3403125 9.9375 16.6875 C5.31690576 17.05421383 3.00231053 16.27582363 -1 14 C-2.81721648 11.95563146 -3.01755772 10.73596103 -2.953125 8.03515625 C-2.4256487 2.4256487 -2.4256487 2.4256487 0 0 Z " fill="#F1DCDC" transform="translate(190,127)"/>
<path d="M0 0 C0.33 0.66 0.66 1.32 1 2 C-2.29020811 2.65341008 -5.58239533 3.29628521 -8.875 3.9375 C-9.7928125 4.11990234 -10.710625 4.30230469 -11.65625 4.49023438 C-17.75627063 5.6715764 -23.807137 6.49585146 -30 7 C-30.33 6.34 -30.66 5.68 -31 5 C-26.375 2.875 -26.375 2.875 -23 4 C-20.46823781 3.76995111 -20.46823781 3.76995111 -17.67578125 3.22265625 C-16.13374023 2.94711914 -16.13374023 2.94711914 -14.56054688 2.66601562 C-13.48869141 2.46685547 -12.41683594 2.26769531 -11.3125 2.0625 C-9.68731445 1.76956055 -9.68731445 1.76956055 -8.02929688 1.47070312 C-5.35159333 0.98706504 -2.67532848 0.49657996 0 0 Z " fill="#C6DEC6" transform="translate(88,100)"/>
<path d="M0 0 C1.2065625 0.0309375 1.2065625 0.0309375 2.4375 0.0625 C4.76340854 3.69673209 4.60015833 6.83338331 4.4375 11.0625 C3.7775 10.0725 3.1175 9.0825 2.4375 8.0625 C2.7675 7.4025 3.0975 6.7425 3.4375 6.0625 C2.1175 7.0525 0.7975 8.0425 -0.5625 9.0625 C-0.8925 7.7425 -1.2225 6.4225 -1.5625 5.0625 C-1.5625 7.0425 -1.5625 9.0225 -1.5625 11.0625 C-1.8925 11.0625 -2.2225 11.0625 -2.5625 11.0625 C-2.75656478 9.41742782 -2.94257935 7.77140406 -3.125 6.125 C-3.22941406 5.20847656 -3.33382812 4.29195312 -3.44140625 3.34765625 C-3.48136719 2.59355469 -3.52132812 1.83945313 -3.5625 1.0625 C-2.5625 0.0625 -2.5625 0.0625 0 0 Z " fill="#B4B4B4" transform="translate(110.5625,154.9375)"/>
<path d="M0 0 C0.99 0.495 0.99 0.495 2 1 C2 2.32 2 3.64 2 5 C4.64 4.67 7.28 4.34 10 4 C9.67 5.65 9.34 7.3 9 9 C8.01 9 7.02 9 6 9 C6 10.32 6 11.64 6 13 C7.65 13.33 9.3 13.66 11 14 C11 15.65 11 17.3 11 19 C10.34 18.67 9.68 18.34 9 18 C9 17.34 9 16.68 9 16 C7.68 15.67 6.36 15.34 5 15 C4.8125 11.625 4.8125 11.625 5 8 C5.99 7.34 6.98 6.68 8 6 C5.69 6.33 3.38 6.66 1 7 C0.67 4.69 0.34 2.38 0 0 Z " fill="#DEDEDE" transform="translate(13,119)"/>
<path d="M0 0 C0.99 0.33 1.98 0.66 3 1 C3 1.66 3 2.32 3 3 C3.99 3.33 4.98 3.66 6 4 C6 6 6 6 4.125 8.125 C2 10 2 10 0 10 C-0.33 8.68 -0.66 7.36 -1 6 C-1.99 6 -2.98 6 -4 6 C-3.67 5.01 -3.34 4.02 -3 3 C-2.34 3 -1.68 3 -1 3 C-0.67 2.01 -0.34 1.02 0 0 Z " fill="#F8ECDC" transform="translate(161,5)"/>
<path d="M0 0 C1.98 0 3.96 0 6 0 C6 2.31 6 4.62 6 7 C4.35 6.67 2.7 6.34 1 6 C0.67 6.66 0.34 7.32 0 8 C-0.99 8 -1.98 8 -3 8 C-3.33 6.68 -3.66 5.36 -4 4 C-3.34 4 -2.68 4 -2 4 C-1.34 2.68 -0.68 1.36 0 0 Z " fill="#D2D2D2" transform="translate(149,159)"/>
<path d="M0 0 C8.91 0 17.82 0 27 0 C27 0.33 27 0.66 27 1 C18.42 1 9.84 1 1 1 C1 2.32 1 3.64 1 5 C1.99 5 2.98 5 4 5 C4 7.31 4 9.62 4 12 C3.34 12 2.68 12 2 12 C2 10.35 2 8.7 2 7 C1.34 7 0.68 7 0 7 C0 4.69 0 2.38 0 0 Z " fill="#959595" transform="translate(31,118)"/>
<path d="M0 0 C0.66 0.33 1.32 0.66 2 1 C1.34 1.66 0.68 2.32 0 3 C-0.63086132 6.31202191 -0.44055229 8.28794455 1.34375 11.171875 C2.84308362 13.16627161 4.38115671 15.10171353 6 17 C8.86724686 16.42655063 9.8614515 16.1385485 12 14 C11.42655063 16.86724686 11.1385485 17.8614515 9 20 C5.41384212 19.70362332 3.64004541 18.07389506 1.25 15.5 C-2.02285433 11.61742763 -2.71173495 8.88825367 -2.44140625 3.8828125 C-2 2 -2 2 0 0 Z " fill="#DCDCDC" transform="translate(87,128)"/>
<path d="M0 0 C3.3 0 6.6 0 10 0 C10 2.64 10 5.28 10 8 C8.68 7.67 7.36 7.34 6 7 C6.66 7 7.32 7 8 7 C8 5.35 8 3.7 8 2 C6.02 2 4.04 2 2 2 C1.67 3.98 1.34 5.96 1 8 C0.67 8 0.34 8 0 8 C0 5.36 0 2.72 0 0 Z " fill="#E79D9D" transform="translate(155,123)"/>
<path d="M0 0 C7.75 -0.125 7.75 -0.125 10 1 C10 1.99 10 2.98 10 4 C10.66 4 11.32 4 12 4 C12 3.01 12 2.02 12 1 C12.66 1.33 13.32 1.66 14 2 C13.67 3.98 13.34 5.96 13 8 C12.67 7.01 12.34 6.02 12 5 C10.68 5.33 9.36 5.66 8 6 C8.33 4.68 8.66 3.36 9 2 C8.01 2 7.02 2 6 2 C6 3.98 6 5.96 6 8 C5.896875 7.360625 5.79375 6.72125 5.6875 6.0625 C5.3471875 5.0415625 5.3471875 5.0415625 5 4 C4.01 3.67 3.02 3.34 2 3 C1.34 2.67 0.68 2.34 0 2 C0 1.34 0 0.68 0 0 Z " fill="#B1B1B1" transform="translate(72,158)"/>
<path d="M0 0 C1.98 0.495 1.98 0.495 4 1 C4 4.3 4 7.6 4 11 C2.68 11 1.36 11 0 11 C-1.28571429 3.57142857 -1.28571429 3.57142857 0 0 Z " fill="#ADADAD" transform="translate(92,155)"/>
<path d="M0 0 C1.65 0 3.3 0 5 0 C5 0.66 5 1.32 5 2 C5.7425 2.226875 6.485 2.45375 7.25 2.6875 C11.52914259 4.72981806 13.42404492 8.13606738 16 12 C16 12.99 16 13.98 16 15 C15.34 15 14.68 15 14 15 C13.75765625 14.45730469 13.5153125 13.91460937 13.265625 13.35546875 C10.61896493 7.70586744 8.76529232 5.01039527 2.75 2.8125 C1.8425 2.544375 0.935 2.27625 0 2 C0 1.34 0 0.68 0 0 Z " fill="#F5E9D8" transform="translate(152,36)"/>
<path d="M0 0 C0.66 0 1.32 0 2 0 C2.39600661 3.46505783 2.14386351 4.78172433 0.1875 7.75 C-2 10 -2 10 -5 11 C-5 6.93297895 -4.87680186 6.29578979 -2.625 3.25 C-2.18414062 2.63640625 -1.74328125 2.0228125 -1.2890625 1.390625 C-0.65097656 0.70226562 -0.65097656 0.70226562 0 0 Z " fill="#FAB253" transform="translate(107,77)"/>
<path d="M0 0 C0.66 0 1.32 0 2 0 C2 4.62 2 9.24 2 14 C3.98 14 5.96 14 8 14 C8 14.33 8 14.66 8 15 C5.36 15 2.72 15 0 15 C-0.19390729 12.68802845 -0.37996367 10.3753971 -0.5625 8.0625 C-0.71912109 6.13083984 -0.71912109 6.13083984 -0.87890625 4.16015625 C-0.91886719 3.11730469 -0.95882812 2.07445312 -1 1 C-0.67 0.67 -0.34 0.34 0 0 Z " fill="#C4C4C4" transform="translate(106,132)"/>
<path d="M0 0 C1.65 0 3.3 0 5 0 C5 3.63 5 7.26 5 11 C6.98 11 8.96 11 11 11 C11 11.33 11 11.66 11 12 C8.36 12 5.72 12 3 12 C3 8.7 3 5.4 3 2 C2.01 2 1.02 2 0 2 C0 1.34 0 0.68 0 0 Z " fill="#D4D4D4" transform="translate(30,135)"/>
<path d="M0 0 C1.98 0 3.96 0 6 0 C6 1.98 6 3.96 6 6 C4.02 6 2.04 6 0 6 C0 4.02 0 2.04 0 0 Z " fill="#FF9101" transform="translate(134,79)"/>
<path d="M0 0 C1.98 0 3.96 0 6 0 C6 1.98 6 3.96 6 6 C4.02 6 2.04 6 0 6 C0 4.02 0 2.04 0 0 Z " fill="#FF9202" transform="translate(124,79)"/>
<path d="M0 0 C0.66 0 1.32 0 2 0 C1.13350722 4.09614769 0.53809513 6.47535725 -2.5 9.4375 C-5 11 -5 11 -7 11 C-5.51131293 6.39860359 -3.25370145 3.49772906 0 0 Z " fill="#FCA738" transform="translate(99,89)"/>
<path d="M0 0 C1.65 0.33 3.3 0.66 5 1 C5 1.99 5 2.98 5 4 C6.65 4.33 8.3 4.66 10 5 C10.33 4.01 10.66 3.02 11 2 C11.33 2.66 11.66 3.32 12 4 C11.01 5.485 11.01 5.485 10 7 C7.69 6.67 5.38 6.34 3 6 C3 4.68 3 3.36 3 2 C2.01 2 1.02 2 0 2 C-0.33 2.99 -0.66 3.98 -1 5 C-0.67 3.35 -0.34 1.7 0 0 Z " fill="#CFCFCF" transform="translate(93,132)"/>
<path d="M0 0 C2.31 0.33 4.62 0.66 7 1 C7 1.66 7 2.32 7 3 C6.39671875 3.21914063 5.7934375 3.43828125 5.171875 3.6640625 C-0.42658613 5.8853874 -3.19501379 7.63393943 -6 13 C-6.33 12.01 -6.66 11.02 -7 10 C-2.88888889 4.44444444 -2.88888889 4.44444444 0 3 C0 2.01 0 1.02 0 0 Z " fill="#F7E2C7" transform="translate(175,35)"/>
<path d="M0 0 C0.66 0 1.32 0 2 0 C2 1.98 2 3.96 2 6 C2.66 6 3.32 6 4 6 C4 9.63 4 13.26 4 17 C3.01 17 2.02 17 1 17 C1.33 16.67 1.66 16.34 2 16 C2.23192865 14.48530552 2.41215238 12.96245438 2.5625 11.4375 C2.64628906 10.61121094 2.73007813 9.78492187 2.81640625 8.93359375 C2.87699219 8.29550781 2.93757812 7.65742187 3 7 C1.68 7.33 0.36 7.66 -1 8 C-0.67 5.36 -0.34 2.72 0 0 Z " fill="#F3E5E5" transform="translate(230,118)"/>
<path d="M0 0 C1.98 0 3.96 0 6 0 C6.33 1.32 6.66 2.64 7 4 C6.01 4 5.02 4 4 4 C4 4.66 4 5.32 4 6 C2.35 6 0.7 6 -1 6 C-0.67 4.02 -0.34 2.04 0 0 Z " fill="#DBDBDB" transform="translate(130,158)"/>
<path d="M0 0 C0.99 0 1.98 0 3 0 C3 0.99 3 1.98 3 3 C4.65 3 6.3 3 8 3 C9.35439668 5.70879335 9.06501451 8.00933268 9 11 C7.35 11.33 5.7 11.66 4 12 C4 11.34 4 10.68 4 10 C5.32 10 6.64 10 8 10 C8 8.68 8 7.36 8 6 C6.02 6 4.04 6 2 6 C2 4.35 2 2.7 2 1 C1.34 0.67 0.68 0.34 0 0 Z " fill="#E9BDBD" transform="translate(221,123)"/>
<path d="M0 0 C0.66 0 1.32 0 2 0 C2 2.31 2 4.62 2 7 C4.31 7 6.62 7 9 7 C9 7.66 9 8.32 9 9 C6.03 9 3.06 9 0 9 C0 6.03 0 3.06 0 0 Z " fill="#F8E2C4" transform="translate(132,68)"/>
<path d="M0 0 C0.66 0 1.32 0 2 0 C2.33 1.98 2.66 3.96 3 6 C2.01 6 1.02 6 0 6 C-1.46090788 7.5354878 -1.46090788 7.5354878 -2.6875 9.5 C-3.12449219 10.1496875 -3.56148437 10.799375 -4.01171875 11.46875 C-4.33785156 11.9740625 -4.66398438 12.479375 -5 13 C-6.32 12.67 -7.64 12.34 -9 12 C-8.071875 11.319375 -7.14375 10.63875 -6.1875 9.9375 C-2.68613361 7.05694325 -1.49368977 4.23212101 0 0 Z " fill="#F6DDBC" transform="translate(166,23)"/>
<path d="M0 0 C0.99 0.33 1.98 0.66 3 1 C3.99 1 4.98 1 6 1 C6.33 2.98 6.66 4.96 7 7 C4.69 6.67 2.38 6.34 0 6 C0 4.02 0 2.04 0 0 Z " fill="#DEDEDE" transform="translate(173,160)"/>
<path d="M0 0 C0.66 0.33 1.32 0.66 2 1 C1 3 1 3 0 4 C0.99 4 1.98 4 3 4 C3 6.64 3 9.28 3 12 C2.67 12 2.34 12 2 12 C2 10.02 2 8.04 2 6 C1.34 6 0.68 6 0 6 C0 7.98 0 9.96 0 12 C-2.44897847 8.32653229 -2.31537716 6.33643601 -2 2 C-1.34 1.34 -0.68 0.68 0 0 Z " fill="#A19D9D" transform="translate(156,154)"/>
<path d="M0 0 C1.32 0 2.64 0 4 0 C2.92598892 2.91517292 2.22189824 4.77810176 0 7 C-1.32 7 -2.64 7 -4 7 C-2.79618552 4.50638429 -1.54571278 2.31856917 0 0 Z " fill="#FAB964" transform="translate(113,69)"/>
<path d="M0 0 C1.65 0 3.3 0 5 0 C5 1.98 5 3.96 5 6 C3.35 6 1.7 6 0 6 C0 4.02 0 2.04 0 0 Z " fill="#FF9100" transform="translate(124,69)"/>
<path d="M0 0 C0.99 0 1.98 0 3 0 C2.67 1.65 2.34 3.3 2 5 C2.66 5 3.32 5 4 5 C4 3.35 4 1.7 4 0 C4.66 0 5.32 0 6 0 C6 2.31 6 4.62 6 7 C4.02 6.34 2.04 5.68 0 5 C0 3.35 0 1.7 0 0 Z " fill="#ABABAB" transform="translate(117,159)"/>
<path d="M0 0 C0.928125 0.20625 1.85625 0.4125 2.8125 0.625 C5.48606298 0.71941951 8.13602811 0.67036393 10.8125 0.625 C10.8125 0.955 10.8125 1.285 10.8125 1.625 C9.25133181 1.96451619 7.68848662 2.29632544 6.125 2.625 C4.81982422 2.9034375 4.81982422 2.9034375 3.48828125 3.1875 C0.87537036 3.61472047 -1.54563038 3.70116201 -4.1875 3.625 C-4.5175 2.965 -4.8475 2.305 -5.1875 1.625 C-2.1875 -0.375 -2.1875 -0.375 0 0 Z " fill="#DAE9DA" transform="translate(62.1875,103.375)"/>
<path d="M0 0 C0.99 0.495 0.99 0.495 2 1 C1.67 1.66 1.34 2.32 1 3 C2.32 2.67 3.64 2.34 5 2 C5.33 3.98 5.66 5.96 6 8 C4.35 8 2.7 8 1 8 C0.67 7.34 0.34 6.68 0 6 C0.99 6 1.98 6 3 6 C3 5.34 3 4.68 3 4 C2.01 4 1.02 4 0 4 C0 2.68 0 1.36 0 0 Z " fill="#A2A2A2" transform="translate(101,161)"/>
<path d="M0 0 C0.99 0.33 1.98 0.66 3 1 C3.6875 3.0625 3.6875 3.0625 4 5 C3.01 5.66 2.02 6.32 1 7 C0.34 6.34 -0.32 5.68 -1 5 C-0.625 2.375 -0.625 2.375 0 0 Z " fill="#F9B45A" transform="translate(161,5)"/>
<path d="M0 0 C0.33 0 0.66 0 1 0 C1 1.65 1 3.3 1 5 C1.99 5 2.98 5 4 5 C4 7.31 4 9.62 4 12 C3.34 12 2.68 12 2 12 C2 10.35 2 8.7 2 7 C1.34 7 0.68 7 0 7 C0 4.69 0 2.38 0 0 Z " fill="#D0D0D0" transform="translate(31,118)"/>
<path d="M0 0 C2.64 0.33 5.28 0.66 8 1 C8.33 1.99 8.66 2.98 9 4 C6.69 4 4.38 4 2 4 C1.34 2.68 0.68 1.36 0 0 Z " fill="#4BA24B" transform="translate(221,177)"/>
<path d="M0 0 C0.99 0.495 0.99 0.495 2 1 C2.99 1 3.98 1 5 1 C5 2.65 5 4.3 5 6 C3.35 5.67 1.7 5.34 0 5 C0 3.35 0 1.7 0 0 Z " fill="#DDDDDD" transform="translate(109,160)"/>
<path d="M0 0 C0.33 0.99 0.66 1.98 1 3 C1.66 3 2.32 3 3 3 C3.33 2.01 3.66 1.02 4 0 C4 1.32 4 2.64 4 4 C3.01 4.33 2.02 4.66 1 5 C1.33 5.66 1.66 6.32 2 7 C0.68 6.34 -0.64 5.68 -2 5 C-2 4.01 -2 3.02 -2 2 C-1.34 2 -0.68 2 0 2 C0 1.34 0 0.68 0 0 Z " fill="#9E9E9E" transform="translate(166,159)"/>
<path d="M0 0 C3.16115776 1.36983503 3.9927092 1.9890638 6 5 C5.67 5.99 5.34 6.98 5 8 C0 2.25 0 2.25 0 0 Z " fill="#E7E8DB" transform="translate(157,77)"/>
<path d="M0 0 C4.29 0.33 8.58 0.66 13 1 C13 1.33 13 1.66 13 2 C11.58696762 2.2506019 10.16920526 2.47461921 8.75 2.6875 C7.96109375 2.81511719 7.1721875 2.94273437 6.359375 3.07421875 C4 3 4 3 0 0 Z " fill="#F5BB6E" transform="translate(41,179)"/>
<path d="M0 0 C0.33 0.99 0.66 1.98 1 3 C1.66 3 2.32 3 3 3 C3 2.01 3 1.02 3 0 C3.66 0.33 4.32 0.66 5 1 C4.67 2.98 4.34 4.96 4 7 C3.67 6.01 3.34 5.02 3 4 C1.68 4.33 0.36 4.66 -1 5 C-0.67 3.35 -0.34 1.7 0 0 Z " fill="#999999" transform="translate(144,159)"/>
<path d="M0 0 C0.33 0.99 0.66 1.98 1 3 C1.66 3 2.32 3 3 3 C3 2.01 3 1.02 3 0 C3.66 0.33 4.32 0.66 5 1 C4.67 2.98 4.34 4.96 4 7 C3.67 6.01 3.34 5.02 3 4 C1.68 4.33 0.36 4.66 -1 5 C-0.67 3.35 -0.34 1.7 0 0 Z " fill="#999999" transform="translate(81,159)"/>
<path d="M0 0 C0.99 0 1.98 0 3 0 C2.67 1.32 2.34 2.64 2 4 C2.66 4 3.32 4 4 4 C4 4.66 4 5.32 4 6 C2.68 6 1.36 6 0 6 C0 4.02 0 2.04 0 0 Z " fill="#E3E3E3" transform="translate(78,160)"/>
<path d="M0 0 C1.98 0 3.96 0 6 0 C5.67 2.64 5.34 5.28 5 8 C4.67 8 4.34 8 4 8 C4 6.02 4 4.04 4 2 C2.68 2 1.36 2 0 2 C0 1.34 0 0.68 0 0 Z " fill="#B0B0B0" transform="translate(136,158)"/>
<path d="M0 0 C1.66611905 -0.042721 3.33382885 -0.04063832 5 0 C6 1 6 1 6.0625 3.5625 C6.041875 4.366875 6.02125 5.17125 6 6 C5.34 5.67 4.68 5.34 4 5 C4 4.34 4 3.68 4 3 C2.68 2.67 1.36 2.34 0 2 C0 1.34 0 0.68 0 0 Z " fill="#C6C6C6" transform="translate(18,132)"/>
</svg>
